<svg width="390" height="844" viewBox="0 0 390 844" fill="none" xmlns="http://www.w3.org/2000/svg">
<g clip-path="url(#clip0_1_208)">
<rect width="390" height="844" fill="#FDFFE6"/>
<g filter="url(#filter0_fn_1_208)">
<circle cx="-89.5" cy="470.5" r="148.5" fill="#E9BCBC"/>
</g>
<g filter="url(#filter1_fn_1_208)">
<path d="M343 470.5C343 552.514 276.514 619 194.5 619C112.486 619 46 552.514 46 470.5C46 388.486 112.486 322 194.5 322C276.514 322 343 388.486 343 470.5Z" fill="#96AD83"/>
</g>
<g clip-path="url(#clip1_1_208)">
<path fill-rule="evenodd" clip-rule="evenodd" d="M49.5 793C49.7761 793 50 793.224 50 793.5V803H55V796.5C55 796.224 55.2239 796 55.5 796H60.5C60.7761 796 61 796.224 61 796.5V803H66V794C66 793.724 66.2239 793.5 66.5 793.5C66.7761 793.5 67 793.724 67 794V803.5C67 803.776 66.7761 804 66.5 804H60.5C60.2239 804 60 803.776 60 803.5V797H56V803.5C56 803.776 55.7761 804 55.5 804H49.5C49.2239 804 49 803.776 49 803.5V793.5C49 793.224 49.2239 793 49.5 793Z" fill="#282828"/>
<path fill-rule="evenodd" clip-rule="evenodd" d="M57.6464 781.146C57.8417 780.951 58.1583 780.951 58.3536 781.146L69.8536 792.646C70.0488 792.842 70.0488 793.158 69.8536 793.354C69.6583 793.549 69.3417 793.549 69.1464 793.354L58 782.207L46.8536 793.354C46.6583 793.549 46.3417 793.549 46.1464 793.354C45.9512 793.158 45.9512 792.842 46.1464 792.646L57.6464 781.146Z" fill="#282828"/>
<path fill-rule="evenodd" clip-rule="evenodd" d="M61.5 782.5C61.5 782.224 61.7239 782 62 782H65.5C65.7761 782 66 782.224 66 782.5V786C66 786.276 65.7761 786.5 65.5 786.5C65.2239 786.5 65 786.276 65 786V783H62C61.7239 783 61.5 782.776 61.5 782.5Z" fill="#282828"/>
<path fill-rule="evenodd" clip-rule="evenodd" d="M49.5 793C49.7761 793 50 793.224 50 793.5V803H55V796.5C55 796.224 55.2239 796 55.5 796H60.5C60.7761 796 61 796.224 61 796.5V803H66V794C66 793.724 66.2239 793.5 66.5 793.5C66.7761 793.5 67 793.724 67 794V803.5C67 803.776 66.7761 804 66.5 804H60.5C60.2239 804 60 803.776 60 803.5V797H56V803.5C56 803.776 55.7761 804 55.5 804H49.5C49.2239 804 49 803.776 49 803.5V793.5C49 793.224 49.2239 793 49.5 793Z" stroke="black" stroke-miterlimit="10" stroke-linecap="round" stroke-linejoin="round"/>
<path fill-rule="evenodd" clip-rule="evenodd" d="M57.6464 781.146C57.8417 780.951 58.1583 780.951 58.3536 781.146L69.8536 792.646C70.0488 792.842 70.0488 793.158 69.8536 793.354C69.6583 793.549 69.3417 793.549 69.1464 793.354L58 782.207L46.8536 793.354C46.6583 793.549 46.3417 793.549 46.1464 793.354C45.9512 793.158 45.9512 792.842 46.1464 792.646L57.6464 781.146Z" stroke="black" stroke-miterlimit="10" stroke-linecap="round" stroke-linejoin="round"/>
<path fill-rule="evenodd" clip-rule="evenodd" d="M61.5 782.5C61.5 782.224 61.7239 782 62 782H65.5C65.7761 782 66 782.224 66 782.5V786C66 786.276 65.7761 786.5 65.5 786.5C65.2239 786.5 65 786.276 65 786V783H62C61.7239 783 61.5 782.776 61.5 782.5Z" stroke="black" stroke-miterlimit="10" stroke-linecap="round" stroke-linejoin="round"/>
</g>
<path d="M139 784H158.5M139 793H158.5M139 802H158.5M131.5 784H131.515M131.5 793H131.515M131.5 802H131.515" stroke="#1E1E1E" stroke-width="2" stroke-linecap="round" stroke-linejoin="round"/>
<path d="M331.5 802.327C331.5 802.327 342.437 793.861 342.437 785.848C342.437 777.836 332.733 777.219 331.5 785.233C330.267 777.219 320.562 777.835 320.562 786.465C320.562 795.094 331.5 802.327 331.5 802.327Z" stroke="black" stroke-miterlimit="10" stroke-linejoin="round"/>
<g clip-path="url(#clip2_1_208)">
<path fill-rule="evenodd" clip-rule="evenodd" d="M243.208 779.083C238.721 779.083 235.083 782.721 235.083 787.208C235.083 791.696 238.721 795.333 243.208 795.333C247.696 795.333 251.333 791.696 251.333 787.208C251.333 782.721 247.696 779.083 243.208 779.083ZM234 787.208C234 782.123 238.123 778 243.208 778C248.294 778 252.417 782.123 252.417 787.208C252.417 792.294 248.294 796.417 243.208 796.417C238.123 796.417 234 792.294 234 787.208Z" fill="black"/>
<path fill-rule="evenodd" clip-rule="evenodd" d="M248.953 792.953C249.164 792.741 249.507 792.741 249.719 792.953L259.842 803.075C260.053 803.287 260.053 803.63 259.842 803.841C259.63 804.053 259.287 804.053 259.076 803.841L248.953 793.719C248.741 793.507 248.741 793.164 248.953 792.953Z" fill="black"/>
<path fill-rule="evenodd" clip-rule="evenodd" d="M243.208 779.083C238.721 779.083 235.083 782.721 235.083 787.208C235.083 791.696 238.721 795.333 243.208 795.333C247.696 795.333 251.333 791.696 251.333 787.208C251.333 782.721 247.696 779.083 243.208 779.083ZM234 787.208C234 782.123 238.123 778 243.208 778C248.294 778 252.417 782.123 252.417 787.208C252.417 792.294 248.294 796.417 243.208 796.417C238.123 796.417 234 792.294 234 787.208Z" stroke="black" stroke-miterlimit="10" stroke-linecap="round" stroke-linejoin="round"/>
<path fill-rule="evenodd" clip-rule="evenodd" d="M248.953 792.953C249.164 792.741 249.507 792.741 249.719 792.953L259.842 803.075C260.053 803.287 260.053 803.63 259.842 803.841C259.63 804.053 259.287 804.053 259.076 803.841L248.953 793.719C248.741 793.507 248.741 793.164 248.953 792.953Z" stroke="black" stroke-miterlimit="10" stroke-linecap="round" stroke-linejoin="round"/>
</g>
<g clip-path="url(#clip3_1_208)">
<path d="M132.637 179.016V180.012C132.637 182.928 133.19 185.311 134.297 187.16C134.948 188.254 135.755 189.094 136.719 189.68C137.695 190.253 138.594 190.539 139.414 190.539H140.332C141.335 190.539 142.266 190.266 143.125 189.719C144.753 188.69 145.879 186.991 146.504 184.621C146.934 183.007 147.148 181.333 147.148 179.602V178.938C147.148 178.885 147.148 178.833 147.148 178.781C147.148 177.427 146.986 176.047 146.66 174.641C146.048 171.919 144.915 170.031 143.262 168.977C142.298 168.378 141.309 168.078 140.293 168.078H139.668C138.783 168.078 137.878 168.339 136.953 168.859C135.26 169.81 134.043 171.516 133.301 173.977C132.858 175.448 132.637 177.128 132.637 179.016ZM151.895 178.332V179.68C151.895 181.503 151.602 183.339 151.016 185.188C149.909 188.69 147.865 191.099 144.883 192.414C143.281 193.13 141.654 193.488 140 193.488H139.57C136.198 193.488 133.444 192.219 131.309 189.68C130.423 188.612 129.707 187.232 129.16 185.539C128.626 183.846 128.359 182.108 128.359 180.324V179.426C128.359 177.525 128.633 175.637 129.18 173.762C129.714 171.874 130.553 170.279 131.699 168.977C133.861 166.503 136.628 165.266 140 165.266H140.879C142.22 165.266 143.62 165.578 145.078 166.203C148.008 167.44 150.02 169.803 151.113 173.293C151.634 174.934 151.895 176.613 151.895 178.332ZM156.875 166.008C156.875 164.979 157.721 164.465 159.414 164.465H159.766C160.977 164.465 161.66 164.966 161.816 165.969V170.207L161.777 171.672V172.395L161.719 174.621V175.344L161.699 175.734C161.699 175.982 161.699 176.229 161.699 176.477L161.68 176.848C161.68 177.095 161.68 177.342 161.68 177.59L161.66 177.961V179.797L161.719 182.297C161.732 182.531 161.738 183.124 161.738 184.074C161.738 185.025 161.862 186.04 162.109 187.121C162.37 188.189 162.695 189.042 163.086 189.68C163.477 190.305 163.672 190.839 163.672 191.281C163.672 191.724 163.398 192.115 162.852 192.453C162.318 192.792 161.543 192.961 160.527 192.961H159.844C158.008 192.961 157.09 192.232 157.09 190.773C157.09 190.669 157.142 190.331 157.246 189.758C157.35 189.185 157.409 188.137 157.422 186.613L157.539 181.945L157.559 181.574C157.559 181.327 157.559 181.079 157.559 180.832L157.578 180.09C157.578 179.842 157.578 179.595 157.578 179.348L157.598 178.977C157.598 178.729 157.598 178.482 157.598 178.234L157.617 177.492C157.617 177.245 157.617 176.997 157.617 176.75L157.637 176.008V175.246L157.656 174.504V170.832C157.656 169.348 157.526 168.228 157.266 167.473C157.005 166.717 156.875 166.229 156.875 166.008ZM173.789 190.051H174.453C175.755 190.051 176.797 189.66 177.578 188.879C178.359 188.098 178.75 186.945 178.75 185.422V184.309C178.75 183.475 178.392 183.059 177.676 183.059H177.305L177.168 183.078L176.543 183.117L176.035 183.156C174.551 183.156 173.379 183.54 172.52 184.309C171.673 185.064 171.25 185.962 171.25 187.004V187.531C171.25 188.286 171.51 188.898 172.031 189.367C172.552 189.823 173.138 190.051 173.789 190.051ZM174.434 171.184H174.004C173.418 171.184 173.125 170.975 173.125 170.559V170.363C173.125 169.491 174.18 167.85 176.289 165.441C176.979 164.647 177.76 164.25 178.633 164.25H179.082C180.15 164.25 180.684 164.608 180.684 165.324V165.422C180.684 166.099 179.792 167.232 178.008 168.82C176.237 170.396 175.046 171.184 174.434 171.184ZM184.082 191.418C184.082 192.329 183.223 192.785 181.504 192.785C181.061 192.785 180.456 192.622 179.688 192.297C178.932 191.958 178.405 191.789 178.105 191.789C177.806 191.789 177.467 191.861 177.09 192.004L176.719 192.16L176.348 192.336C175.163 192.883 173.828 193.156 172.344 193.156C170.859 193.156 169.622 192.668 168.633 191.691C167.656 190.702 167.168 189.504 167.168 188.098V187.648C167.168 185.839 167.969 184.4 169.57 183.332C170.508 182.707 171.484 182.297 172.5 182.102C173.516 181.893 174.486 181.724 175.41 181.594C176.348 181.464 177.012 181.314 177.402 181.145C178.092 180.832 178.438 180.305 178.438 179.562C178.438 178.482 178.145 177.681 177.559 177.16C176.986 176.639 176.283 176.379 175.449 176.379C174.616 176.379 173.568 176.685 172.305 177.297C171.042 177.909 170.208 178.215 169.805 178.215C168.932 178.215 168.496 177.668 168.496 176.574C168.496 175.741 169.18 175.018 170.547 174.406C171.927 173.781 173.379 173.469 174.902 173.469H175.371C178.262 173.469 180.306 174.341 181.504 176.086C181.986 176.802 182.305 177.668 182.461 178.684C182.617 179.686 182.695 181.398 182.695 183.82C182.695 186.229 182.734 187.72 182.812 188.293C182.904 188.866 183.138 189.452 183.516 190.051C183.893 190.65 184.082 191.105 184.082 191.418ZM188.809 197.766V197.57C188.809 197.414 188.945 197.147 189.219 196.77C189.987 195.715 190.371 194.784 190.371 193.977C190.371 193.781 190.163 193.339 189.746 192.648C189.329 191.971 189.121 191.255 189.121 190.5C189.121 189.016 189.889 188.267 191.426 188.254H191.719C192.526 188.254 193.112 188.423 193.477 188.762C193.854 189.087 194.043 189.686 194.043 190.559V191.438C194.043 192.857 193.568 194.374 192.617 195.988C191.68 197.603 190.762 198.41 189.863 198.41H189.492C189.036 198.41 188.809 198.195 188.809 197.766ZM215.508 175.734C215.508 176.516 215.632 176.991 215.879 177.16C216.126 177.329 216.634 177.414 217.402 177.414H217.871L218.027 177.395L218.652 177.375L219.609 177.297C220.885 177.297 222.031 176.789 223.047 175.773C223.789 175.031 224.16 173.996 224.16 172.668V172.297C224.16 170.904 223.691 169.855 222.754 169.152C221.816 168.449 220.547 168.098 218.945 168.098H218.145C216.79 168.098 216.016 168.28 215.82 168.645C215.625 169.009 215.527 170.5 215.527 173.117V173.449L215.508 174.113V175.734ZM215.508 188.039C215.508 188.039 215.521 188.41 215.547 189.152C215.547 189.829 216.413 190.168 218.145 190.168H219.648C221.536 190.168 223.001 189.725 224.043 188.84C225.098 187.941 225.625 186.77 225.625 185.324V184.523C225.625 183.013 225.085 181.835 224.004 180.988C222.923 180.142 221.549 179.719 219.883 179.719H218.047C217.057 179.719 216.393 179.816 216.055 180.012C215.729 180.207 215.566 180.617 215.566 181.242C215.514 181.711 215.488 182.036 215.488 182.219V182.688L215.469 183.234V187.141L215.488 187.316L215.508 188.039ZM219.395 165.539C222.298 165.539 224.492 166.118 225.977 167.277C227.474 168.423 228.223 170.012 228.223 172.043C228.223 174.061 227.533 175.741 226.152 177.082C225.41 177.798 225.039 178.189 225.039 178.254C225.039 178.306 225.195 178.423 225.508 178.605L225.879 178.801C227.09 179.426 228.053 180.266 228.77 181.32C229.486 182.362 229.844 183.586 229.844 184.992V185.48C229.831 186.77 229.525 187.922 228.926 188.938C227.806 190.826 225.951 192.056 223.359 192.629C222.044 192.915 220.462 193.059 218.613 193.059H216.758L216.289 193.039C213.685 193.039 212.051 192.954 211.387 192.785C210.749 192.616 210.43 192.245 210.43 191.672C210.43 191.49 210.566 191.047 210.84 190.344C211.113 189.641 211.25 188.195 211.25 186.008V172.941C211.25 170.767 211.1 169.276 210.801 168.469C210.514 167.648 210.371 167.199 210.371 167.121V166.828C210.371 166.398 210.677 166.099 211.289 165.93C211.914 165.747 213.053 165.656 214.707 165.656L215.176 165.637C215.488 165.624 215.794 165.617 216.094 165.617L217.031 165.578L219.395 165.539ZM237.383 165.559H238.027C238.587 165.559 239.069 165.728 239.473 166.066C239.876 166.405 240.078 166.9 240.078 167.551V168.039C240.078 168.573 239.902 169.055 239.551 169.484C239.199 169.901 238.75 170.109 238.203 170.109L237.812 170.168H237.168C237.012 170.129 236.816 170.109 236.582 170.109C236.348 170.109 236.068 169.953 235.742 169.641C235.43 169.315 235.273 168.957 235.273 168.566C235.247 168.462 235.234 168.384 235.234 168.332L235.195 167.941V167.844L235.273 167.219C235.273 166.919 235.443 166.568 235.781 166.164C236.12 165.76 236.654 165.559 237.383 165.559ZM237.695 192.941H236.699C236.152 192.941 235.684 192.785 235.293 192.473C234.902 192.16 234.707 191.822 234.707 191.457C234.707 191.079 234.818 190.539 235.039 189.836C235.26 189.133 235.371 188.508 235.371 187.961L235.41 187.473L235.449 186.457V185.656L235.469 185.129V178.781C235.417 178.078 235.306 177.486 235.137 177.004L234.961 176.633C234.688 175.956 234.551 175.585 234.551 175.52V175.129C234.551 174.374 235.332 173.996 236.895 173.996H237.598C238.548 173.996 239.128 174.367 239.336 175.109C239.388 175.305 239.414 176.444 239.414 178.527V182.961L239.453 184.25L239.531 185.754C239.531 187.303 239.85 188.618 240.488 189.699C240.749 190.142 240.879 190.637 240.879 191.184C240.879 191.717 240.573 192.147 239.961 192.473C239.349 192.785 238.594 192.941 237.695 192.941ZM251.719 190.539H252.324C253.535 190.539 254.603 190.018 255.527 188.977C256.035 188.404 256.289 187.336 256.289 185.773L256.309 185.52V185.031C256.309 184.055 255.905 183.566 255.098 183.566H254.473L253.457 183.645L252.93 183.703C251.732 183.703 250.749 184.042 249.98 184.719C249.212 185.383 248.828 186.177 248.828 187.102V187.785C248.828 188.488 249.076 189.126 249.57 189.699C250.078 190.259 250.794 190.539 251.719 190.539ZM261.602 191.477C261.602 192.349 260.723 192.785 258.965 192.785C258.652 192.785 258.079 192.629 257.246 192.316C256.426 191.991 255.905 191.828 255.684 191.828C255.475 191.828 254.772 192.056 253.574 192.512C252.376 192.954 251.322 193.176 250.41 193.176H249.961C248.542 193.176 247.318 192.714 246.289 191.789C245.26 190.852 244.746 189.576 244.746 187.961C244.746 184.68 246.823 182.635 250.977 181.828C253.672 181.294 255.065 181.008 255.156 180.969C255.794 180.643 256.113 180.057 256.113 179.211C256.113 178.352 255.84 177.635 255.293 177.062C254.759 176.477 254.023 176.184 253.086 176.184C252.161 176.184 251.068 176.503 249.805 177.141C248.542 177.766 247.676 178.078 247.207 178.078C246.361 178.078 245.938 177.499 245.938 176.34C245.938 175.611 246.602 174.921 247.93 174.27C249.271 173.618 250.794 173.293 252.5 173.293H253.477C254.753 173.293 255.885 173.534 256.875 174.016C257.865 174.497 258.62 175.148 259.141 175.969C259.883 177.128 260.254 179.777 260.254 183.918C260.254 186.262 260.299 187.72 260.391 188.293C260.495 188.866 260.723 189.445 261.074 190.031C261.426 190.604 261.602 191.086 261.602 191.477Z" fill="black"/>
<path d="M101.805 212.242L101.625 211.008C101.625 210.706 101.76 210.479 102.031 210.328C102.307 210.177 102.633 210.102 103.008 210.102C103.388 210.102 103.656 210.167 103.812 210.297C103.974 210.427 104.055 210.557 104.055 210.688V210.945L103.992 211.188L103.891 211.414L103.797 211.656C103.708 211.948 103.664 212.88 103.664 214.453L103.648 215.75C103.648 215.896 103.643 216.112 103.633 216.398L103.609 217.055C103.594 217.711 103.586 218.182 103.586 218.469C103.586 218.75 103.604 218.971 103.641 219.133C103.682 219.289 103.75 219.482 103.844 219.711C103.943 219.94 103.992 220.107 103.992 220.211C103.992 220.492 103.901 220.682 103.719 220.781C103.542 220.88 103.266 220.93 102.891 220.93C102.521 220.93 102.219 220.844 101.984 220.672C101.75 220.495 101.633 220.323 101.633 220.156C101.633 219.99 101.654 219.799 101.695 219.586C101.742 219.367 101.779 219.159 101.805 218.961C101.836 218.763 101.852 218.289 101.852 217.539C101.852 216.789 101.711 216.323 101.43 216.141C101.232 216.01 100.768 215.945 100.039 215.945C98.6068 215.945 97.7656 216.086 97.5156 216.367C97.3177 216.591 97.2188 217.247 97.2188 218.336C97.2188 218.742 97.2292 219.031 97.25 219.203L97.2891 219.453L97.3359 219.68C97.3672 219.857 97.3828 220.026 97.3828 220.188C97.3828 220.344 97.2812 220.492 97.0781 220.633C96.875 220.773 96.5729 220.844 96.1719 220.844C95.4167 220.844 95.0391 220.612 95.0391 220.148C95.0391 220.138 95.1354 219.815 95.3281 219.18C95.4375 218.815 95.4922 217.578 95.4922 215.469L95.5 215.148C95.5052 214.852 95.5104 214.617 95.5156 214.445C95.5208 214.273 95.5234 213.885 95.5234 213.281C95.5234 212.672 95.5026 212.268 95.4609 212.07C95.4245 211.872 95.349 211.651 95.2344 211.406C95.125 211.161 95.0703 210.969 95.0703 210.828C95.0703 210.385 95.4323 210.164 96.1562 210.164C96.5312 210.164 96.8281 210.237 97.0469 210.383C97.2708 210.523 97.3828 210.693 97.3828 210.891C97.3828 210.938 97.3568 211.12 97.3047 211.438C97.2526 211.755 97.2266 212.148 97.2266 212.617C97.2266 213.591 97.362 214.18 97.6328 214.383C97.9089 214.581 98.776 214.68 100.234 214.68C101 214.68 101.453 214.536 101.594 214.25C101.734 213.958 101.805 213.289 101.805 212.242ZM109.68 216.398C110.034 216.398 110.284 216.344 110.43 216.234C110.576 216.125 110.648 216 110.648 215.859V215.531C110.648 215.156 110.51 214.846 110.234 214.602C109.958 214.357 109.656 214.234 109.328 214.234H109.125C108.651 214.234 108.237 214.435 107.883 214.836C107.529 215.232 107.352 215.667 107.352 216.141V216.273C107.352 216.456 107.518 216.547 107.852 216.547H108.031L108.078 216.539L108.664 216.5L109.055 216.469L109.32 216.438C109.367 216.432 109.43 216.424 109.508 216.414C109.591 216.404 109.648 216.398 109.68 216.398ZM109.359 221.102H109.016C107.974 221.102 107.138 220.75 106.508 220.047C106.227 219.734 106.008 219.339 105.852 218.859C105.695 218.375 105.617 217.896 105.617 217.422V217.07C105.617 216.596 105.716 216.099 105.914 215.578C106.294 214.562 106.94 213.872 107.852 213.508C108.32 213.315 108.818 213.219 109.344 213.219H109.516C110.245 213.219 110.846 213.44 111.32 213.883C111.591 214.138 111.794 214.445 111.93 214.805C112.07 215.159 112.141 215.479 112.141 215.766C112.141 216.396 111.943 216.807 111.547 217C111.276 217.13 110.656 217.253 109.688 217.367C108.724 217.482 108.195 217.552 108.102 217.578C107.648 217.693 107.422 217.896 107.422 218.188C107.422 218.693 107.654 219.115 108.117 219.453C108.456 219.703 108.94 219.828 109.57 219.828C109.81 219.828 110.198 219.753 110.734 219.602C111.271 219.451 111.565 219.375 111.617 219.375C111.888 219.375 112.023 219.497 112.023 219.742C112.023 220.049 111.732 220.354 111.148 220.656C110.57 220.953 109.974 221.102 109.359 221.102ZM117.68 214.828C117.19 214.828 116.81 215.073 116.539 215.562C116.268 216.047 116.133 216.789 116.133 217.789C116.133 218.232 116.151 218.547 116.188 218.734C116.224 218.917 116.279 219.146 116.352 219.422C116.43 219.693 116.469 219.93 116.469 220.133C116.469 220.331 116.349 220.513 116.109 220.68C115.87 220.846 115.557 220.93 115.172 220.93L115.039 220.922H114.898C114.648 220.922 114.44 220.852 114.273 220.711C114.112 220.57 114.031 220.411 114.031 220.234V220.109C114.031 220.073 114.081 219.901 114.18 219.594C114.279 219.286 114.336 218.99 114.352 218.703C114.367 218.417 114.375 218.031 114.375 217.547V216.68L114.367 216.539C114.367 216.445 114.367 216.352 114.367 216.258L114.352 215.836C114.346 215.742 114.344 215.56 114.344 215.289C114.344 215.013 114.294 214.753 114.195 214.508C114.102 214.258 114.055 214.096 114.055 214.023C114.055 213.711 114.328 213.555 114.875 213.555C115.422 213.555 115.818 213.703 116.062 214C116.135 214.089 116.211 214.133 116.289 214.133C116.372 214.133 116.508 214.068 116.695 213.938C117.216 213.583 117.654 213.406 118.008 213.406H118.133C118.445 213.406 118.682 213.477 118.844 213.617C119.01 213.758 119.094 213.945 119.094 214.18C119.094 214.643 118.836 214.875 118.32 214.875C118.117 214.844 117.904 214.828 117.68 214.828ZM124.102 216.398C124.456 216.398 124.706 216.344 124.852 216.234C124.997 216.125 125.07 216 125.07 215.859V215.531C125.07 215.156 124.932 214.846 124.656 214.602C124.38 214.357 124.078 214.234 123.75 214.234H123.547C123.073 214.234 122.659 214.435 122.305 214.836C121.951 215.232 121.773 215.667 121.773 216.141V216.273C121.773 216.456 121.94 216.547 122.273 216.547H122.453L122.5 216.539L123.086 216.5L123.477 216.469L123.742 216.438C123.789 216.432 123.852 216.424 123.93 216.414C124.013 216.404 124.07 216.398 124.102 216.398ZM123.781 221.102H123.438C122.396 221.102 121.56 220.75 120.93 220.047C120.648 219.734 120.43 219.339 120.273 218.859C120.117 218.375 120.039 217.896 120.039 217.422V217.07C120.039 216.596 120.138 216.099 120.336 215.578C120.716 214.562 121.362 213.872 122.273 213.508C122.742 213.315 123.24 213.219 123.766 213.219H123.938C124.667 213.219 125.268 213.44 125.742 213.883C126.013 214.138 126.216 214.445 126.352 214.805C126.492 215.159 126.562 215.479 126.562 215.766C126.562 216.396 126.365 216.807 125.969 217C125.698 217.13 125.078 217.253 124.109 217.367C123.146 217.482 122.617 217.552 122.523 217.578C122.07 217.693 121.844 217.896 121.844 218.188C121.844 218.693 122.076 219.115 122.539 219.453C122.878 219.703 123.362 219.828 123.992 219.828C124.232 219.828 124.62 219.753 125.156 219.602C125.693 219.451 125.987 219.375 126.039 219.375C126.31 219.375 126.445 219.497 126.445 219.742C126.445 220.049 126.154 220.354 125.57 220.656C124.992 220.953 124.396 221.102 123.781 221.102ZM135.25 220.016H135.492C135.977 220.016 136.404 219.807 136.773 219.391C136.977 219.161 137.078 218.734 137.078 218.109L137.086 218.008V217.812C137.086 217.422 136.924 217.227 136.602 217.227H136.352L135.945 217.258L135.734 217.281C135.255 217.281 134.862 217.417 134.555 217.688C134.247 217.953 134.094 218.271 134.094 218.641V218.914C134.094 219.195 134.193 219.451 134.391 219.68C134.594 219.904 134.88 220.016 135.25 220.016ZM139.203 220.391C139.203 220.74 138.852 220.914 138.148 220.914C138.023 220.914 137.794 220.852 137.461 220.727C137.133 220.596 136.924 220.531 136.836 220.531C136.753 220.531 136.471 220.622 135.992 220.805C135.513 220.982 135.091 221.07 134.727 221.07H134.547C133.979 221.07 133.49 220.885 133.078 220.516C132.667 220.141 132.461 219.63 132.461 218.984C132.461 217.672 133.292 216.854 134.953 216.531C136.031 216.318 136.589 216.203 136.625 216.188C136.88 216.057 137.008 215.823 137.008 215.484C137.008 215.141 136.898 214.854 136.68 214.625C136.466 214.391 136.172 214.273 135.797 214.273C135.427 214.273 134.99 214.401 134.484 214.656C133.979 214.906 133.633 215.031 133.445 215.031C133.107 215.031 132.938 214.799 132.938 214.336C132.938 214.044 133.203 213.768 133.734 213.508C134.271 213.247 134.88 213.117 135.562 213.117H135.953C136.464 213.117 136.917 213.214 137.312 213.406C137.708 213.599 138.01 213.859 138.219 214.188C138.516 214.651 138.664 215.711 138.664 217.367C138.664 218.305 138.682 218.888 138.719 219.117C138.76 219.346 138.852 219.578 138.992 219.812C139.133 220.042 139.203 220.234 139.203 220.391ZM144.727 214.828C144.237 214.828 143.857 215.073 143.586 215.562C143.315 216.047 143.18 216.789 143.18 217.789C143.18 218.232 143.198 218.547 143.234 218.734C143.271 218.917 143.326 219.146 143.398 219.422C143.477 219.693 143.516 219.93 143.516 220.133C143.516 220.331 143.396 220.513 143.156 220.68C142.917 220.846 142.604 220.93 142.219 220.93L142.086 220.922H141.945C141.695 220.922 141.487 220.852 141.32 220.711C141.159 220.57 141.078 220.411 141.078 220.234V220.109C141.078 220.073 141.128 219.901 141.227 219.594C141.326 219.286 141.383 218.99 141.398 218.703C141.414 218.417 141.422 218.031 141.422 217.547V216.68L141.414 216.539C141.414 216.445 141.414 216.352 141.414 216.258L141.398 215.836C141.393 215.742 141.391 215.56 141.391 215.289C141.391 215.013 141.341 214.753 141.242 214.508C141.148 214.258 141.102 214.096 141.102 214.023C141.102 213.711 141.375 213.555 141.922 213.555C142.469 213.555 142.865 213.703 143.109 214C143.182 214.089 143.258 214.133 143.336 214.133C143.419 214.133 143.555 214.068 143.742 213.938C144.263 213.583 144.701 213.406 145.055 213.406H145.18C145.492 213.406 145.729 213.477 145.891 213.617C146.057 213.758 146.141 213.945 146.141 214.18C146.141 214.643 145.883 214.875 145.367 214.875C145.164 214.844 144.951 214.828 144.727 214.828ZM151.148 216.398C151.503 216.398 151.753 216.344 151.898 216.234C152.044 216.125 152.117 216 152.117 215.859V215.531C152.117 215.156 151.979 214.846 151.703 214.602C151.427 214.357 151.125 214.234 150.797 214.234H150.594C150.12 214.234 149.706 214.435 149.352 214.836C148.997 215.232 148.82 215.667 148.82 216.141V216.273C148.82 216.456 148.987 216.547 149.32 216.547H149.5L149.547 216.539L150.133 216.5L150.523 216.469L150.789 216.438C150.836 216.432 150.898 216.424 150.977 216.414C151.06 216.404 151.117 216.398 151.148 216.398ZM150.828 221.102H150.484C149.443 221.102 148.607 220.75 147.977 220.047C147.695 219.734 147.477 219.339 147.32 218.859C147.164 218.375 147.086 217.896 147.086 217.422V217.07C147.086 216.596 147.185 216.099 147.383 215.578C147.763 214.562 148.409 213.872 149.32 213.508C149.789 213.315 150.286 213.219 150.812 213.219H150.984C151.714 213.219 152.315 213.44 152.789 213.883C153.06 214.138 153.263 214.445 153.398 214.805C153.539 215.159 153.609 215.479 153.609 215.766C153.609 216.396 153.411 216.807 153.016 217C152.745 217.13 152.125 217.253 151.156 217.367C150.193 217.482 149.664 217.552 149.57 217.578C149.117 217.693 148.891 217.896 148.891 218.188C148.891 218.693 149.122 219.115 149.586 219.453C149.924 219.703 150.409 219.828 151.039 219.828C151.279 219.828 151.667 219.753 152.203 219.602C152.74 219.451 153.034 219.375 153.086 219.375C153.357 219.375 153.492 219.497 153.492 219.742C153.492 220.049 153.201 220.354 152.617 220.656C152.039 220.953 151.443 221.102 150.828 221.102ZM161.039 217.719C160.091 215.625 159.617 214.453 159.617 214.203C159.617 213.953 159.708 213.776 159.891 213.672C160.073 213.568 160.352 213.516 160.727 213.516C161.102 213.516 161.37 213.701 161.531 214.07C161.552 214.112 161.62 214.424 161.734 215.008C161.849 215.591 162.07 216.37 162.398 217.344C162.727 218.318 162.979 218.805 163.156 218.805C163.198 218.805 163.271 218.737 163.375 218.602C163.635 218.258 163.917 217.628 164.219 216.711C164.526 215.789 164.703 214.971 164.75 214.258C164.771 213.951 164.807 213.753 164.859 213.664C165 213.43 165.242 213.312 165.586 213.312H165.789C166.263 213.312 166.5 213.497 166.5 213.867C166.5 214.091 166.406 214.435 166.219 214.898C166.036 215.362 165.898 215.747 165.805 216.055C164.945 218.94 164.318 220.784 163.922 221.586C163.526 222.393 163.091 223.018 162.617 223.461C162.148 223.909 161.669 224.133 161.18 224.133C160.69 224.133 160.445 223.977 160.445 223.664C160.445 223.445 160.669 223.247 161.117 223.07C161.57 222.893 161.891 222.695 162.078 222.477C162.443 222.055 162.625 221.576 162.625 221.039C162.625 220.742 162.417 220.24 162 219.531C161.583 218.818 161.263 218.214 161.039 217.719ZM171.07 220.094H171.227C171.753 220.094 172.185 219.862 172.523 219.398C172.862 218.935 173.031 218.349 173.031 217.641L173.047 217.469L173.055 217.203V216.852C173.055 216.076 172.896 215.438 172.578 214.938C172.266 214.432 171.846 214.18 171.32 214.18H171.164C170.648 214.18 170.214 214.435 169.859 214.945C169.51 215.456 169.336 216.133 169.336 216.977V217.508C169.346 217.633 169.352 217.719 169.352 217.766C169.352 218.359 169.516 218.896 169.844 219.375C170.172 219.854 170.581 220.094 171.07 220.094ZM174.82 216.961V217.219C174.82 217.682 174.745 218.159 174.594 218.648C174.286 219.643 173.682 220.357 172.781 220.789C172.26 221.039 171.745 221.164 171.234 221.164H170.969C170.484 221.164 170.034 221.065 169.617 220.867C168.789 220.471 168.24 219.815 167.969 218.898C167.823 218.414 167.75 217.922 167.75 217.422V217.023C167.75 216.534 167.826 216.044 167.977 215.555C168.273 214.586 168.862 213.893 169.742 213.477C170.195 213.258 170.659 213.148 171.133 213.148H171.523C171.971 213.148 172.414 213.245 172.852 213.438C173.727 213.823 174.315 214.51 174.617 215.5C174.753 215.938 174.82 216.424 174.82 216.961ZM178.25 213.992C178.318 214.216 178.352 215.026 178.352 216.422C178.352 217.818 178.404 218.661 178.508 218.953C178.727 219.568 179.117 219.875 179.68 219.875C180.367 219.875 180.865 219.609 181.172 219.078C181.479 218.542 181.633 217.633 181.633 216.352L181.648 215.93V215.516C181.648 215.234 181.628 214.948 181.586 214.656C181.549 214.365 181.531 214.203 181.531 214.172C181.531 213.927 181.617 213.755 181.789 213.656C181.961 213.552 182.214 213.5 182.547 213.5C182.88 213.5 183.094 213.625 183.188 213.875C183.25 214.042 183.281 214.87 183.281 216.359C183.281 217.844 183.362 218.919 183.523 219.586C183.596 219.872 183.633 220.021 183.633 220.031V220.18C183.633 220.315 183.552 220.44 183.391 220.555C183.234 220.669 183.01 220.727 182.719 220.727C182.427 220.727 182.146 220.664 181.875 220.539C181.604 220.409 181.438 220.344 181.375 220.344C181.318 220.344 181.044 220.438 180.555 220.625C180.065 220.812 179.63 220.906 179.25 220.906H179.047C178.63 220.906 178.253 220.812 177.914 220.625C177.576 220.432 177.312 220.159 177.125 219.805C176.849 219.279 176.711 218.161 176.711 216.453C176.711 215.458 176.677 214.844 176.609 214.609C176.604 214.589 176.57 214.495 176.508 214.328C176.445 214.161 176.414 214.044 176.414 213.977V213.805C176.414 213.518 176.685 213.375 177.227 213.375H177.414C177.846 213.375 178.125 213.581 178.25 213.992ZM189.195 214.828C188.706 214.828 188.326 215.073 188.055 215.562C187.784 216.047 187.648 216.789 187.648 217.789C187.648 218.232 187.667 218.547 187.703 218.734C187.74 218.917 187.794 219.146 187.867 219.422C187.945 219.693 187.984 219.93 187.984 220.133C187.984 220.331 187.865 220.513 187.625 220.68C187.385 220.846 187.073 220.93 186.688 220.93L186.555 220.922H186.414C186.164 220.922 185.956 220.852 185.789 220.711C185.628 220.57 185.547 220.411 185.547 220.234V220.109C185.547 220.073 185.596 219.901 185.695 219.594C185.794 219.286 185.852 218.99 185.867 218.703C185.883 218.417 185.891 218.031 185.891 217.547V216.68L185.883 216.539C185.883 216.445 185.883 216.352 185.883 216.258L185.867 215.836C185.862 215.742 185.859 215.56 185.859 215.289C185.859 215.013 185.81 214.753 185.711 214.508C185.617 214.258 185.57 214.096 185.57 214.023C185.57 213.711 185.844 213.555 186.391 213.555C186.938 213.555 187.333 213.703 187.578 214C187.651 214.089 187.727 214.133 187.805 214.133C187.888 214.133 188.023 214.068 188.211 213.938C188.732 213.583 189.169 213.406 189.523 213.406H189.648C189.961 213.406 190.198 213.477 190.359 213.617C190.526 213.758 190.609 213.945 190.609 214.18C190.609 214.643 190.352 214.875 189.836 214.875C189.633 214.844 189.419 214.828 189.195 214.828ZM199.977 210.812C199.643 210.812 199.375 210.935 199.172 211.18C198.969 211.424 198.867 211.737 198.867 212.117C198.867 212.497 198.924 212.758 199.039 212.898C199.154 213.039 199.417 213.216 199.828 213.43C200.245 213.643 200.453 213.846 200.453 214.039C200.453 214.19 200.242 214.367 199.82 214.57C199.513 214.716 199.289 214.992 199.148 215.398C198.909 216.081 198.789 217.073 198.789 218.375C198.789 218.734 198.844 219.122 198.953 219.539C199.068 219.956 199.125 220.216 199.125 220.32C199.125 220.57 199.013 220.781 198.789 220.953C198.565 221.125 198.276 221.211 197.922 221.211C197.573 221.211 197.286 221.12 197.062 220.938C196.839 220.755 196.727 220.508 196.727 220.195C196.727 220.122 196.771 219.94 196.859 219.648C196.953 219.357 197.016 219.122 197.047 218.945C197.078 218.768 197.094 218.388 197.094 217.805L197.078 217.438L197.07 217.055C197.07 216.138 197.034 215.526 196.961 215.219C196.893 214.906 196.771 214.651 196.594 214.453C196.422 214.255 196.336 214.081 196.336 213.93C196.336 213.888 196.534 213.542 196.93 212.891C197.008 212.76 197.138 212.406 197.32 211.828C197.503 211.245 197.714 210.799 197.953 210.492C198.193 210.18 198.492 209.94 198.852 209.773C199.211 209.607 199.56 209.523 199.898 209.523H200.289C200.674 209.523 200.977 209.604 201.195 209.766C201.414 209.927 201.523 210.065 201.523 210.18V210.312C201.523 210.682 201.292 210.867 200.828 210.867C200.75 210.867 200.667 210.862 200.578 210.852C200.333 210.826 200.133 210.812 199.977 210.812ZM204.688 220.016H204.93C205.414 220.016 205.841 219.807 206.211 219.391C206.414 219.161 206.516 218.734 206.516 218.109L206.523 218.008V217.812C206.523 217.422 206.362 217.227 206.039 217.227H205.789L205.383 217.258L205.172 217.281C204.693 217.281 204.299 217.417 203.992 217.688C203.685 217.953 203.531 218.271 203.531 218.641V218.914C203.531 219.195 203.63 219.451 203.828 219.68C204.031 219.904 204.318 220.016 204.688 220.016ZM208.641 220.391C208.641 220.74 208.289 220.914 207.586 220.914C207.461 220.914 207.232 220.852 206.898 220.727C206.57 220.596 206.362 220.531 206.273 220.531C206.19 220.531 205.909 220.622 205.43 220.805C204.951 220.982 204.529 221.07 204.164 221.07H203.984C203.417 221.07 202.927 220.885 202.516 220.516C202.104 220.141 201.898 219.63 201.898 218.984C201.898 217.672 202.729 216.854 204.391 216.531C205.469 216.318 206.026 216.203 206.062 216.188C206.318 216.057 206.445 215.823 206.445 215.484C206.445 215.141 206.336 214.854 206.117 214.625C205.904 214.391 205.609 214.273 205.234 214.273C204.865 214.273 204.427 214.401 203.922 214.656C203.417 214.906 203.07 215.031 202.883 215.031C202.544 215.031 202.375 214.799 202.375 214.336C202.375 214.044 202.641 213.768 203.172 213.508C203.708 213.247 204.318 213.117 205 213.117H205.391C205.901 213.117 206.354 213.214 206.75 213.406C207.146 213.599 207.448 213.859 207.656 214.188C207.953 214.651 208.102 215.711 208.102 217.367C208.102 218.305 208.12 218.888 208.156 219.117C208.198 219.346 208.289 219.578 208.43 219.812C208.57 220.042 208.641 220.234 208.641 220.391ZM213.312 221C212.932 221 212.581 220.661 212.258 219.984C211.94 219.307 211.581 218.388 211.18 217.227C210.784 216.06 210.461 215.268 210.211 214.852C209.961 214.435 209.836 214.117 209.836 213.898C209.836 213.68 209.888 213.526 209.992 213.438C210.102 213.349 210.346 213.305 210.727 213.305C211.336 213.305 211.74 213.526 211.938 213.969C211.984 214.078 212.042 214.315 212.109 214.68C212.177 215.044 212.401 215.862 212.781 217.133C213.167 218.404 213.427 219.039 213.562 219.039C213.724 219.039 214.029 218.333 214.477 216.922C214.924 215.51 215.169 214.648 215.211 214.336C215.253 214.018 215.284 213.833 215.305 213.781C215.424 213.458 215.714 213.297 216.172 213.297H216.328C216.594 213.297 216.773 213.339 216.867 213.422C216.966 213.5 217.016 213.646 217.016 213.859V213.992C217.016 214.128 216.859 214.464 216.547 215C216.479 215.115 216.182 215.878 215.656 217.289C215.135 218.695 214.758 219.617 214.523 220.055C214.294 220.492 214.099 220.76 213.938 220.859C213.781 220.953 213.573 221 213.312 221ZM221.398 220.094H221.555C222.081 220.094 222.513 219.862 222.852 219.398C223.19 218.935 223.359 218.349 223.359 217.641L223.375 217.469L223.383 217.203V216.852C223.383 216.076 223.224 215.438 222.906 214.938C222.594 214.432 222.174 214.18 221.648 214.18H221.492C220.977 214.18 220.542 214.435 220.188 214.945C219.839 215.456 219.664 216.133 219.664 216.977V217.508C219.674 217.633 219.68 217.719 219.68 217.766C219.68 218.359 219.844 218.896 220.172 219.375C220.5 219.854 220.909 220.094 221.398 220.094ZM225.148 216.961V217.219C225.148 217.682 225.073 218.159 224.922 218.648C224.615 219.643 224.01 220.357 223.109 220.789C222.589 221.039 222.073 221.164 221.562 221.164H221.297C220.812 221.164 220.362 221.065 219.945 220.867C219.117 220.471 218.568 219.815 218.297 218.898C218.151 218.414 218.078 217.922 218.078 217.422V217.023C218.078 216.534 218.154 216.044 218.305 215.555C218.602 214.586 219.19 213.893 220.07 213.477C220.523 213.258 220.987 213.148 221.461 213.148H221.852C222.299 213.148 222.742 213.245 223.18 213.438C224.055 213.823 224.643 214.51 224.945 215.5C225.081 215.938 225.148 216.424 225.148 216.961ZM230.57 214.828C230.081 214.828 229.701 215.073 229.43 215.562C229.159 216.047 229.023 216.789 229.023 217.789C229.023 218.232 229.042 218.547 229.078 218.734C229.115 218.917 229.169 219.146 229.242 219.422C229.32 219.693 229.359 219.93 229.359 220.133C229.359 220.331 229.24 220.513 229 220.68C228.76 220.846 228.448 220.93 228.062 220.93L227.93 220.922H227.789C227.539 220.922 227.331 220.852 227.164 220.711C227.003 220.57 226.922 220.411 226.922 220.234V220.109C226.922 220.073 226.971 219.901 227.07 219.594C227.169 219.286 227.227 218.99 227.242 218.703C227.258 218.417 227.266 218.031 227.266 217.547V216.68L227.258 216.539C227.258 216.445 227.258 216.352 227.258 216.258L227.242 215.836C227.237 215.742 227.234 215.56 227.234 215.289C227.234 215.013 227.185 214.753 227.086 214.508C226.992 214.258 226.945 214.096 226.945 214.023C226.945 213.711 227.219 213.555 227.766 213.555C228.312 213.555 228.708 213.703 228.953 214C229.026 214.089 229.102 214.133 229.18 214.133C229.263 214.133 229.398 214.068 229.586 213.938C230.107 213.583 230.544 213.406 230.898 213.406H231.023C231.336 213.406 231.573 213.477 231.734 213.617C231.901 213.758 231.984 213.945 231.984 214.18C231.984 214.643 231.727 214.875 231.211 214.875C231.008 214.844 230.794 214.828 230.57 214.828ZM234.562 210.023H234.82C235.044 210.023 235.237 210.091 235.398 210.227C235.56 210.362 235.641 210.56 235.641 210.82V211.016C235.641 211.229 235.57 211.422 235.43 211.594C235.289 211.76 235.109 211.844 234.891 211.844L234.734 211.867H234.477C234.414 211.852 234.336 211.844 234.242 211.844C234.148 211.844 234.036 211.781 233.906 211.656C233.781 211.526 233.719 211.383 233.719 211.227C233.708 211.185 233.703 211.154 233.703 211.133L233.688 210.977V210.938L233.719 210.688C233.719 210.568 233.786 210.427 233.922 210.266C234.057 210.104 234.271 210.023 234.562 210.023ZM234.688 220.977H234.289C234.07 220.977 233.883 220.914 233.727 220.789C233.57 220.664 233.492 220.529 233.492 220.383C233.492 220.232 233.536 220.016 233.625 219.734C233.714 219.453 233.758 219.203 233.758 218.984L233.773 218.789L233.789 218.383V218.062L233.797 217.852V215.312C233.776 215.031 233.732 214.794 233.664 214.602L233.594 214.453C233.484 214.182 233.43 214.034 233.43 214.008V213.852C233.43 213.549 233.742 213.398 234.367 213.398H234.648C235.029 213.398 235.26 213.547 235.344 213.844C235.365 213.922 235.375 214.378 235.375 215.211V216.984L235.391 217.5L235.422 218.102C235.422 218.721 235.549 219.247 235.805 219.68C235.909 219.857 235.961 220.055 235.961 220.273C235.961 220.487 235.839 220.659 235.594 220.789C235.349 220.914 235.047 220.977 234.688 220.977ZM240.812 220.969H240.516C239.766 220.969 239.227 220.646 238.898 220C238.628 219.474 238.492 218.609 238.492 217.406C238.492 216.203 238.427 215.378 238.297 214.93C238.25 214.763 238.12 214.573 237.906 214.359C237.693 214.146 237.586 213.961 237.586 213.805V213.703C237.586 213.568 237.708 213.419 237.953 213.258C238.198 213.096 238.339 212.982 238.375 212.914C238.417 212.841 238.495 212.589 238.609 212.156C238.729 211.719 238.852 211.414 238.977 211.242C239.107 211.065 239.279 210.977 239.492 210.977C239.711 210.977 239.865 211.039 239.953 211.164C240.047 211.289 240.138 211.547 240.227 211.938C240.32 212.328 240.422 212.594 240.531 212.734C240.641 212.87 240.906 213.013 241.328 213.164C241.75 213.315 241.961 213.503 241.961 213.727C241.961 213.924 241.74 214.102 241.297 214.258C240.859 214.414 240.583 214.607 240.469 214.836C240.25 215.279 240.141 216.062 240.141 217.188C240.141 218.312 240.237 219.003 240.43 219.258C240.622 219.508 240.935 219.661 241.367 219.719C241.805 219.776 242.023 219.94 242.023 220.211C242.023 220.419 241.898 220.599 241.648 220.75C241.404 220.896 241.125 220.969 240.812 220.969ZM247.461 216.398C247.815 216.398 248.065 216.344 248.211 216.234C248.357 216.125 248.43 216 248.43 215.859V215.531C248.43 215.156 248.292 214.846 248.016 214.602C247.74 214.357 247.438 214.234 247.109 214.234H246.906C246.432 214.234 246.018 214.435 245.664 214.836C245.31 215.232 245.133 215.667 245.133 216.141V216.273C245.133 216.456 245.299 216.547 245.633 216.547H245.812L245.859 216.539L246.445 216.5L246.836 216.469L247.102 216.438C247.148 216.432 247.211 216.424 247.289 216.414C247.372 216.404 247.43 216.398 247.461 216.398ZM247.141 221.102H246.797C245.755 221.102 244.919 220.75 244.289 220.047C244.008 219.734 243.789 219.339 243.633 218.859C243.477 218.375 243.398 217.896 243.398 217.422V217.07C243.398 216.596 243.497 216.099 243.695 215.578C244.076 214.562 244.721 213.872 245.633 213.508C246.102 213.315 246.599 213.219 247.125 213.219H247.297C248.026 213.219 248.628 213.44 249.102 213.883C249.372 214.138 249.576 214.445 249.711 214.805C249.852 215.159 249.922 215.479 249.922 215.766C249.922 216.396 249.724 216.807 249.328 217C249.057 217.13 248.438 217.253 247.469 217.367C246.505 217.482 245.977 217.552 245.883 217.578C245.43 217.693 245.203 217.896 245.203 218.188C245.203 218.693 245.435 219.115 245.898 219.453C246.237 219.703 246.721 219.828 247.352 219.828C247.591 219.828 247.979 219.753 248.516 219.602C249.052 219.451 249.346 219.375 249.398 219.375C249.669 219.375 249.805 219.497 249.805 219.742C249.805 220.049 249.513 220.354 248.93 220.656C248.352 220.953 247.755 221.102 247.141 221.102ZM256.781 216.75C256.333 216.354 256.109 215.844 256.109 215.219C256.109 214.589 256.378 214.076 256.914 213.68C257.451 213.279 258.133 213.078 258.961 213.078C259.789 213.078 260.393 213.18 260.773 213.383C261.154 213.581 261.344 213.841 261.344 214.164C261.344 214.607 261.201 214.828 260.914 214.828C260.815 214.828 260.552 214.721 260.125 214.508C259.698 214.294 259.284 214.188 258.883 214.188C258.482 214.188 258.18 214.279 257.977 214.461C257.779 214.643 257.68 214.878 257.68 215.164C257.68 215.451 257.872 215.706 258.258 215.93C258.388 216.008 258.81 216.19 259.523 216.477C260.242 216.758 260.747 217.026 261.039 217.281C261.492 217.682 261.719 218.203 261.719 218.844C261.719 219.484 261.451 220.023 260.914 220.461C260.383 220.893 259.695 221.109 258.852 221.109C257.419 221.109 256.531 220.831 256.188 220.273C256.078 220.096 256.023 219.94 256.023 219.805C256.023 219.352 256.164 219.125 256.445 219.125C256.529 219.125 256.833 219.266 257.359 219.547C257.891 219.823 258.362 219.961 258.773 219.961C259.19 219.961 259.518 219.872 259.758 219.695C259.997 219.518 260.117 219.279 260.117 218.977C260.117 218.669 259.927 218.388 259.547 218.133C259.391 218.029 258.961 217.836 258.258 217.555C257.555 217.268 257.062 217 256.781 216.75ZM266.477 220.094H266.633C267.159 220.094 267.591 219.862 267.93 219.398C268.268 218.935 268.438 218.349 268.438 217.641L268.453 217.469L268.461 217.203V216.852C268.461 216.076 268.302 215.438 267.984 214.938C267.672 214.432 267.253 214.18 266.727 214.18H266.57C266.055 214.18 265.62 214.435 265.266 214.945C264.917 215.456 264.742 216.133 264.742 216.977V217.508C264.753 217.633 264.758 217.719 264.758 217.766C264.758 218.359 264.922 218.896 265.25 219.375C265.578 219.854 265.987 220.094 266.477 220.094ZM270.227 216.961V217.219C270.227 217.682 270.151 218.159 270 218.648C269.693 219.643 269.089 220.357 268.188 220.789C267.667 221.039 267.151 221.164 266.641 221.164H266.375C265.891 221.164 265.44 221.065 265.023 220.867C264.195 220.471 263.646 219.815 263.375 218.898C263.229 218.414 263.156 217.922 263.156 217.422V217.023C263.156 216.534 263.232 216.044 263.383 215.555C263.68 214.586 264.268 213.893 265.148 213.477C265.602 213.258 266.065 213.148 266.539 213.148H266.93C267.378 213.148 267.82 213.245 268.258 213.438C269.133 213.823 269.721 214.51 270.023 215.5C270.159 215.938 270.227 216.424 270.227 216.961ZM273.656 213.992C273.724 214.216 273.758 215.026 273.758 216.422C273.758 217.818 273.81 218.661 273.914 218.953C274.133 219.568 274.523 219.875 275.086 219.875C275.773 219.875 276.271 219.609 276.578 219.078C276.885 218.542 277.039 217.633 277.039 216.352L277.055 215.93V215.516C277.055 215.234 277.034 214.948 276.992 214.656C276.956 214.365 276.938 214.203 276.938 214.172C276.938 213.927 277.023 213.755 277.195 213.656C277.367 213.552 277.62 213.5 277.953 213.5C278.286 213.5 278.5 213.625 278.594 213.875C278.656 214.042 278.688 214.87 278.688 216.359C278.688 217.844 278.768 218.919 278.93 219.586C279.003 219.872 279.039 220.021 279.039 220.031V220.18C279.039 220.315 278.958 220.44 278.797 220.555C278.641 220.669 278.417 220.727 278.125 220.727C277.833 220.727 277.552 220.664 277.281 220.539C277.01 220.409 276.844 220.344 276.781 220.344C276.724 220.344 276.451 220.438 275.961 220.625C275.471 220.812 275.036 220.906 274.656 220.906H274.453C274.036 220.906 273.659 220.812 273.32 220.625C272.982 220.432 272.719 220.159 272.531 219.805C272.255 219.279 272.117 218.161 272.117 216.453C272.117 215.458 272.083 214.844 272.016 214.609C272.01 214.589 271.977 214.495 271.914 214.328C271.852 214.161 271.82 214.044 271.82 213.977V213.805C271.82 213.518 272.091 213.375 272.633 213.375H272.82C273.253 213.375 273.531 213.581 273.656 213.992ZM281.047 210.203C281.047 209.792 281.385 209.586 282.062 209.586H282.203C282.688 209.586 282.961 209.786 283.023 210.188V211.883L283.008 212.469V212.758L282.984 213.648V213.938L282.977 214.094C282.977 214.193 282.977 214.292 282.977 214.391L282.969 214.539C282.969 214.638 282.969 214.737 282.969 214.836L282.961 214.984V215.719L282.984 216.719C282.99 216.812 282.992 217.049 282.992 217.43C282.992 217.81 283.042 218.216 283.141 218.648C283.245 219.076 283.375 219.417 283.531 219.672C283.688 219.922 283.766 220.135 283.766 220.312C283.766 220.49 283.656 220.646 283.438 220.781C283.224 220.917 282.914 220.984 282.508 220.984H282.234C281.5 220.984 281.133 220.693 281.133 220.109C281.133 220.068 281.154 219.932 281.195 219.703C281.237 219.474 281.26 219.055 281.266 218.445L281.312 216.578L281.32 216.43C281.32 216.331 281.32 216.232 281.32 216.133L281.328 215.836C281.328 215.737 281.328 215.638 281.328 215.539L281.336 215.391C281.336 215.292 281.336 215.193 281.336 215.094L281.344 214.797C281.344 214.698 281.344 214.599 281.344 214.5L281.352 214.203V213.898L281.359 213.602V212.133C281.359 211.539 281.307 211.091 281.203 210.789C281.099 210.487 281.047 210.292 281.047 210.203ZM286.172 216.75C285.724 216.354 285.5 215.844 285.5 215.219C285.5 214.589 285.768 214.076 286.305 213.68C286.841 213.279 287.523 213.078 288.352 213.078C289.18 213.078 289.784 213.18 290.164 213.383C290.544 213.581 290.734 213.841 290.734 214.164C290.734 214.607 290.591 214.828 290.305 214.828C290.206 214.828 289.943 214.721 289.516 214.508C289.089 214.294 288.674 214.188 288.273 214.188C287.872 214.188 287.57 214.279 287.367 214.461C287.169 214.643 287.07 214.878 287.07 215.164C287.07 215.451 287.263 215.706 287.648 215.93C287.779 216.008 288.201 216.19 288.914 216.477C289.633 216.758 290.138 217.026 290.43 217.281C290.883 217.682 291.109 218.203 291.109 218.844C291.109 219.484 290.841 220.023 290.305 220.461C289.773 220.893 289.086 221.109 288.242 221.109C286.81 221.109 285.922 220.831 285.578 220.273C285.469 220.096 285.414 219.94 285.414 219.805C285.414 219.352 285.555 219.125 285.836 219.125C285.919 219.125 286.224 219.266 286.75 219.547C287.281 219.823 287.753 219.961 288.164 219.961C288.581 219.961 288.909 219.872 289.148 219.695C289.388 219.518 289.508 219.279 289.508 218.977C289.508 218.669 289.318 218.388 288.938 218.133C288.781 218.029 288.352 217.836 287.648 217.555C286.945 217.268 286.453 217 286.172 216.75ZM293.953 213.531H294.062C294.432 213.531 294.682 213.609 294.812 213.766C294.943 213.922 295.008 214.159 295.008 214.477V214.516C295.008 215.177 294.737 215.508 294.195 215.508L293.992 215.531H293.883C293.544 215.531 293.307 215.453 293.172 215.297C293.042 215.135 292.977 214.896 292.977 214.578V214.547L292.992 214.375L293.016 214.211C293.016 214.003 293.102 213.839 293.273 213.719C293.445 213.594 293.672 213.531 293.953 213.531ZM294.961 220.008L294.945 220.172C294.945 220.365 294.875 220.531 294.734 220.672C294.599 220.807 294.427 220.875 294.219 220.875C294.177 220.885 294.143 220.891 294.117 220.891L293.977 220.906H293.836L293.805 220.898H293.734C293.693 220.888 293.659 220.883 293.633 220.883C293.419 220.883 293.25 220.81 293.125 220.664C293.005 220.513 292.945 220.297 292.945 220.016V219.875C292.945 219.516 293.031 219.266 293.203 219.125C293.375 218.979 293.62 218.906 293.938 218.906H294.039C294.378 218.906 294.617 218.977 294.758 219.117C294.898 219.258 294.969 219.474 294.969 219.766V219.969L294.961 220.008Z" fill="black"/>
</g>
<g filter="url(#filter2_fn_1_208)">
<circle cx="195" cy="478" r="77" fill="#FCFA7A"/>
</g>
<path d="M164.748 470.973H165.768L165.926 470.955H166.225C168.322 470.955 169.922 470.533 171.023 469.689C172.137 468.834 172.693 467.674 172.693 466.209V465.734C172.693 464.715 172.318 463.93 171.568 463.379C170.83 462.816 169.799 462.535 168.475 462.535H167.402L167.244 462.553H166.963L166.383 462.605C165.703 462.605 165.287 462.84 165.135 463.309C164.279 465.875 163.852 468.207 163.852 470.305V470.568C163.852 470.838 164.15 470.973 164.748 470.973ZM163.465 482.609H165.363L165.539 482.592L166.049 482.574C166.166 482.562 166.283 482.557 166.4 482.557C167.889 482.557 169.172 482.059 170.25 481.062C171.34 480.055 171.885 478.83 171.885 477.389V476.686C171.885 475.514 171.322 474.588 170.197 473.908C169.377 473.416 168.059 473.17 166.242 473.17H166.066L165.891 473.188H165.381L164.73 473.223C164.52 473.246 164.361 473.258 164.256 473.258C163.682 473.258 163.307 473.557 163.131 474.154C162.229 477.225 161.777 479.768 161.777 481.783V482.082C161.777 482.434 162.34 482.609 163.465 482.609ZM176.156 465.559C176.156 467.762 175.219 469.52 173.344 470.832C172.383 471.512 171.902 471.881 171.902 471.939C171.902 471.998 172.02 472.104 172.254 472.256L172.57 472.432C173.508 472.994 174.211 473.645 174.68 474.383C175.148 475.133 175.383 476.117 175.383 477.336C175.371 478.555 175.072 479.656 174.486 480.641C172.787 483.477 169.605 484.9 164.941 484.912H161.092C158.244 484.912 156.82 484.695 156.82 484.262C156.82 484.133 157.043 483.693 157.488 482.943C157.945 482.193 158.326 481.168 158.631 479.867C158.936 478.566 159.475 475.643 160.248 471.096C161.021 466.549 161.408 463.953 161.408 463.309L160.916 461.305C160.916 460.824 161.256 460.537 161.936 460.443C162.615 460.338 164.133 460.285 166.488 460.285L167.789 460.268C170.672 460.268 172.787 460.695 174.135 461.551C175.482 462.406 176.156 463.742 176.156 465.559ZM184.928 482.979H185.473C186.75 482.979 187.91 482.293 188.953 480.922C189.586 480.09 190.066 479.123 190.395 478.021C190.734 476.908 190.904 476.094 190.904 475.578L190.939 475.227L190.957 474.682V474.488L190.939 474.312C190.939 472.953 190.652 471.881 190.078 471.096C189.504 470.311 188.736 469.918 187.775 469.918H187.6L187.424 469.936C186.873 469.936 186.258 470.129 185.578 470.516C184.898 470.891 184.277 471.471 183.715 472.256C182.508 473.967 181.904 475.836 181.904 477.863V478.76C181.904 479.979 182.197 480.986 182.783 481.783C183.369 482.58 184.084 482.979 184.928 482.979ZM184.928 485.246H184.365C183.639 485.246 182.877 485.088 182.08 484.771C181.295 484.443 180.65 483.986 180.146 483.4C179.057 482.135 178.512 480.506 178.512 478.514L178.529 478.232C178.529 476.861 178.787 475.52 179.303 474.207C180.393 471.406 182.092 469.496 184.4 468.477C185.561 467.961 186.674 467.703 187.74 467.703H188.303C189.158 467.703 189.984 467.885 190.781 468.248C191.578 468.6 192.234 469.057 192.75 469.619C193.852 470.838 194.402 472.25 194.402 473.855V474.682C194.402 475.889 194.133 477.166 193.594 478.514C193.066 479.861 192.398 481.021 191.59 481.994C190.793 482.967 189.797 483.752 188.602 484.35C187.418 484.947 186.193 485.246 184.928 485.246ZM199.412 484.93H198.867C197.789 484.93 197.25 484.566 197.25 483.84V483.576C197.25 483.529 197.543 482.223 198.129 479.656C198.715 477.09 199.008 475.092 199.008 473.662C199.008 473.158 198.955 472.678 198.85 472.221C198.756 471.764 198.709 471.219 198.709 470.586C198.709 469.941 198.891 469.402 199.254 468.969C199.629 468.535 200.162 468.318 200.854 468.318C201.545 468.318 202.031 468.5 202.312 468.863C202.605 469.227 202.787 469.713 202.857 470.322C202.928 470.92 203.01 471.219 203.104 471.219C203.221 471.219 203.572 470.938 204.158 470.375C205.6 468.992 206.965 468.295 208.254 468.283C209.121 468.283 209.555 468.658 209.555 469.408V469.637C209.555 470.223 209.344 470.639 208.922 470.885C208.5 471.131 207.844 471.307 206.953 471.412C206.062 471.506 205.43 471.641 205.055 471.816C204.68 471.98 204.234 472.426 203.719 473.152C203.215 473.867 202.787 474.898 202.436 476.246C202.096 477.594 201.861 478.953 201.732 480.324C201.604 481.695 201.445 482.662 201.258 483.225C200.895 484.361 200.279 484.93 199.412 484.93ZM217.148 460.408H217.342C218.467 460.408 219.029 460.783 219.029 461.533C219.053 461.604 219.064 461.668 219.064 461.727L219.1 462.061V462.201L219.082 462.271C219.082 462.318 219.082 462.365 219.082 462.412L219.047 462.693C219.047 463.221 218.854 463.678 218.467 464.064C218.08 464.451 217.646 464.645 217.166 464.645H216.832L216.234 464.557C215.543 464.557 215.197 464.193 215.197 463.467L215.145 463.062V462.799L215.232 462.166C215.232 461.838 215.408 461.463 215.76 461.041C216.111 460.619 216.574 460.408 217.148 460.408ZM216.938 482.346C216.938 482.979 216.574 483.535 215.848 484.016C215.121 484.484 214.143 484.719 212.912 484.719H212.701C211.904 484.719 211.506 484.268 211.506 483.365V483.154C211.506 482.721 211.676 481.918 212.016 480.746C213.141 476.891 213.703 474.025 213.703 472.15C213.703 471.67 213.562 471.23 213.281 470.832C213 470.434 212.859 470.018 212.859 469.584C212.859 469.15 213.152 468.781 213.738 468.477C214.336 468.16 215.121 468.002 216.094 468.002H216.305C217.125 468.002 217.535 468.354 217.535 469.057V469.268C217.535 469.385 217.266 470.938 216.727 473.926C216.199 476.902 215.936 478.531 215.936 478.812L215.9 479.217L215.918 479.604C215.918 480.225 216.088 480.77 216.428 481.238C216.768 481.695 216.938 482.064 216.938 482.346ZM228.504 467.932H229.295C230.432 467.932 231.451 468.137 232.354 468.547C233.256 468.945 233.707 469.391 233.707 469.883V470.199C233.707 470.516 233.59 470.826 233.355 471.131C233.121 471.424 232.816 471.57 232.441 471.57C232.066 471.57 231.498 471.33 230.736 470.85C229.975 470.357 229.236 470.111 228.521 470.111C227.807 470.111 227.186 470.293 226.658 470.656C226.143 471.008 225.885 471.518 225.885 472.186C225.885 472.842 226.207 473.422 226.852 473.926C227.098 474.125 227.848 474.553 229.102 475.209C230.355 475.865 231.281 476.533 231.879 477.213C232.477 477.893 232.775 478.783 232.775 479.885C232.775 481.373 232.131 482.645 230.842 483.699C229.564 484.754 228.123 485.281 226.518 485.281H225.691C224.402 485.281 223.225 485.064 222.158 484.631C221.104 484.197 220.576 483.652 220.576 482.996V482.645C220.576 482.352 220.705 482.029 220.963 481.678C221.221 481.326 221.561 481.15 221.982 481.15C222.158 481.15 222.727 481.467 223.688 482.1C224.66 482.721 225.621 483.031 226.57 483.031C227.52 483.031 228.258 482.785 228.785 482.293C229.324 481.789 229.594 481.227 229.594 480.605C229.594 479.973 229.389 479.469 228.979 479.094C228.58 478.719 227.754 478.203 226.5 477.547C225.246 476.879 224.391 476.311 223.934 475.842C223.172 475.057 222.791 474.137 222.791 473.082C222.791 471.605 223.365 470.381 224.514 469.408C225.662 468.424 226.992 467.932 228.504 467.932Z" fill="black"/>
<path d="M41.1234 21.1675C41.6898 21.1675 42.2269 21.2725 42.7348 21.4824C43.2426 21.6875 43.6918 22.0098 44.0824 22.4492C44.4779 22.8838 44.788 23.4429 45.0126 24.1265C45.2372 24.8052 45.3495 25.623 45.3495 26.5801V26.5947C45.3495 27.7812 45.1786 28.7969 44.8368 29.6416C44.495 30.4863 44.0043 31.1357 43.3646 31.5898C42.7299 32.0391 41.9706 32.2637 41.0868 32.2637C40.4374 32.2637 39.8515 32.1465 39.329 31.9121C38.8114 31.6729 38.3817 31.3457 38.0399 30.9307C37.703 30.5107 37.476 30.0322 37.3588 29.4951L37.3441 29.4146H39.1972L39.2265 29.4878C39.3192 29.7319 39.4511 29.9468 39.622 30.1323C39.7977 30.3179 40.0077 30.4619 40.2518 30.5645C40.5009 30.6621 40.7792 30.7109 41.0868 30.7109C41.6434 30.7109 42.0975 30.5474 42.4491 30.2202C42.8056 29.8882 43.0717 29.4463 43.2474 28.8945C43.4281 28.3379 43.5307 27.7227 43.5551 27.0488C43.5599 26.9756 43.5624 26.9048 43.5624 26.8364C43.5624 26.7632 43.5624 26.6924 43.5624 26.624L43.2328 24.8589C43.2328 24.4585 43.14 24.0947 42.9545 23.7676C42.7689 23.4404 42.5175 23.1816 42.2001 22.9912C41.8876 22.8008 41.5336 22.7056 41.1381 22.7056C40.7572 22.7056 40.4081 22.7983 40.0907 22.9839C39.7733 23.1694 39.5194 23.4233 39.329 23.7456C39.1386 24.063 39.0433 24.4194 39.0433 24.8149V24.8296C39.0433 25.2397 39.1337 25.6035 39.3143 25.9209C39.495 26.2334 39.7416 26.48 40.0541 26.6606C40.3666 26.8413 40.723 26.9316 41.1234 26.9316C41.5238 26.9316 41.8827 26.8438 42.2001 26.668C42.5175 26.4922 42.7689 26.248 42.9545 25.9355C43.14 25.623 43.2328 25.269 43.2328 24.8735V24.8589H43.6723V26.8071H43.4159C43.289 27.0854 43.101 27.3442 42.8519 27.5835C42.6029 27.8228 42.2953 28.0156 41.9291 28.1621C41.5678 28.3086 41.143 28.3818 40.6547 28.3818C39.9808 28.3818 39.3851 28.2305 38.8676 27.9277C38.35 27.625 37.9423 27.21 37.6444 26.6826C37.3515 26.1553 37.205 25.5596 37.205 24.8955V24.8809C37.205 24.1631 37.371 23.5259 37.703 22.9692C38.0399 22.4077 38.5038 21.9683 39.0946 21.6509C39.6903 21.3286 40.3666 21.1675 41.1234 21.1675ZM48.6747 30.5791C48.3427 30.5791 48.0643 30.4692 47.8397 30.2495C47.62 30.0249 47.5101 29.7515 47.5101 29.4292C47.5101 29.1021 47.62 28.8286 47.8397 28.6089C48.0643 28.3843 48.3427 28.272 48.6747 28.272C49.0116 28.272 49.2899 28.3843 49.5097 28.6089C49.7294 28.8286 49.8392 29.1021 49.8392 29.4292C49.8392 29.7515 49.7294 30.0249 49.5097 30.2495C49.2899 30.4692 49.0116 30.5791 48.6747 30.5791ZM48.6747 25.1445C48.3427 25.1445 48.0643 25.0347 47.8397 24.8149C47.62 24.5903 47.5101 24.3169 47.5101 23.9946C47.5101 23.6675 47.62 23.394 47.8397 23.1743C48.0643 22.9497 48.3427 22.8374 48.6747 22.8374C49.0116 22.8374 49.2899 22.9497 49.5097 23.1743C49.7294 23.394 49.8392 23.6675 49.8392 23.9946C49.8392 24.3169 49.7294 24.5903 49.5097 24.8149C49.2899 25.0347 49.0116 25.1445 48.6747 25.1445ZM57.1268 32V29.9712H51.9559V28.4258C52.2343 27.9521 52.5126 27.4761 52.7909 26.9976C53.0741 26.519 53.3598 26.043 53.6478 25.5693C53.9408 25.0908 54.2313 24.6196 54.5194 24.1558C54.8124 23.687 55.1029 23.2256 55.391 22.7715C55.684 22.3125 55.9769 21.8657 56.2699 21.4312H58.9286V28.4111H60.3568V29.9712H58.9286V32H57.1268ZM53.7138 28.4551H57.1561V22.9399H57.0463C56.8314 23.272 56.6093 23.6138 56.3798 23.9653C56.1552 24.3169 55.9281 24.6758 55.6986 25.042C55.4691 25.4082 55.2421 25.7769 55.0175 26.1479C54.7929 26.5142 54.5707 26.8828 54.351 27.2539C54.1312 27.6201 53.9188 27.9839 53.7138 28.3452V28.4551ZM64.7294 32V23.2915H64.5975L61.9682 25.1445V23.3721L64.7294 21.4312H66.6117V32H64.7294Z" fill="black"/>
<rect opacity="0.35" x="329.5" y="20.5" width="24" height="12" rx="3.8" stroke="black"/>
<path opacity="0.4" d="M355 24.7811V28.8566C355.805 28.5114 356.328 27.7085 356.328 26.8189C356.328 25.9293 355.805 25.1263 355 24.7811Z" fill="black"/>
<rect x="331" y="22" width="21" height="9" rx="2.5" fill="black"/>
<path fill-rule="evenodd" clip-rule="evenodd" d="M313.271 23.104C315.758 23.1041 318.15 24.0262 319.952 25.6796C320.088 25.8073 320.305 25.8057 320.439 25.676L321.736 24.4126C321.804 24.3468 321.841 24.2577 321.841 24.165C321.84 24.0724 321.802 23.9837 321.733 23.9187C317.002 19.544 309.538 19.544 304.807 23.9187C304.739 23.9837 304.7 24.0723 304.699 24.165C304.699 24.2577 304.736 24.3468 304.804 24.4126L306.102 25.676C306.235 25.8059 306.452 25.8075 306.588 25.6796C308.391 24.0261 310.783 23.104 313.271 23.104ZM313.267 27.3243C314.624 27.3242 315.933 27.8359 316.939 28.76C317.076 28.8912 317.29 28.8883 317.423 28.7536L318.71 27.4343C318.778 27.3651 318.815 27.2712 318.814 27.1737C318.813 27.0761 318.774 26.9831 318.705 26.9153C315.641 24.0244 310.896 24.0244 307.832 26.9153C307.763 26.9831 307.724 27.0762 307.723 27.1738C307.722 27.2714 307.76 27.3652 307.827 27.4343L309.114 28.7536C309.247 28.8883 309.461 28.8912 309.597 28.76C310.603 27.8365 311.911 27.3248 313.267 27.3243ZM315.792 30.1178C315.794 30.2232 315.756 30.3247 315.689 30.3985L313.512 32.8533C313.449 32.9254 313.362 32.966 313.271 32.966C313.18 32.966 313.093 32.9254 313.029 32.8533L310.852 30.3985C310.785 30.3247 310.748 30.2231 310.75 30.1177C310.752 30.0124 310.793 29.9126 310.863 29.842C312.253 28.5281 314.289 28.5281 315.679 29.842C315.749 29.9127 315.79 30.0125 315.792 30.1178Z" fill="black"/>
<path fill-rule="evenodd" clip-rule="evenodd" d="M297.2 21.6824C297.2 21.0493 296.722 20.5361 296.133 20.5361H295.067C294.478 20.5361 294 21.0493 294 21.6824V31.6163C294 32.2494 294.478 32.7625 295.067 32.7625H296.133C296.722 32.7625 297.2 32.2494 297.2 31.6163V21.6824ZM289.766 22.9814H290.833C291.422 22.9814 291.899 23.5069 291.899 24.1552V31.5888C291.899 32.237 291.422 32.7625 290.833 32.7625H289.766C289.177 32.7625 288.699 32.237 288.699 31.5888V24.1552C288.699 23.5069 289.177 22.9814 289.766 22.9814ZM285.434 25.6305H284.367C283.778 25.6305 283.301 26.1627 283.301 26.8191V31.5739C283.301 32.2303 283.778 32.7625 284.367 32.7625H285.434C286.023 32.7625 286.501 32.2303 286.501 31.5739V26.8191C286.501 26.1627 286.023 25.6305 285.434 25.6305ZM280.133 28.0758H279.067C278.478 28.0758 278 28.6003 278 29.2475V31.5909C278 32.238 278.478 32.7625 279.067 32.7625H280.133C280.722 32.7625 281.2 32.238 281.2 31.5909V29.2475C281.2 28.6003 280.722 28.0758 280.133 28.0758Z" fill="black"/>
</g>
<defs>
<filter id="filter0_fn_1_208" x="-388" y="172" width="597" height="597" filterUnits="userSpaceOnUse" color-interpolation-filters="sRGB">
<feFlood flood-opacity="0" result="BackgroundImageFix"/>
<feBlend mode="normal" in="SourceGraphic" in2="BackgroundImageFix" result="shape"/>
<feGaussianBlur stdDeviation="75" result="effect1_foregroundBlur_1_208"/>
<feTurbulence type="fractalNoise" baseFrequency="2 2" stitchTiles="stitch" numOctaves="3" result="noise" seed="4299" />
<feColorMatrix in="noise" type="luminanceToAlpha" result="alphaNoise" />
<feComponentTransfer in="alphaNoise" result="coloredNoise1">
<feFuncA type="discrete" tableValues="0 0 0 0 0 0 0 0 0 0 0 0 0 0 0 0 1 1 1 1 1 1 1 1 1 1 1 1 1 1 1 1 1 1 0 0 0 0 0 0 0 0 0 0 0 0 0 0 0 0 0 0 0 0 0 0 0 0 0 0 0 0 0 0 0 0 0 0 0 0 0 0 0 0 0 0 0 0 0 0 0 0 0 0 0 0 0 0 0 0 0 0 0 0 0 0 0 0 0 0 "/>
</feComponentTransfer>
<feComposite operator="in" in2="effect1_foregroundBlur_1_208" in="coloredNoise1" result="noise1Clipped" />
<feFlood flood-color="rgba(0, 0, 0, 0.25)" result="color1Flood" />
<feComposite operator="in" in2="noise1Clipped" in="color1Flood" result="color1" />
<feMerge result="effect2_noise_1_208">
<feMergeNode in="effect1_foregroundBlur_1_208" />
<feMergeNode in="color1" />
</feMerge>
</filter>
<filter id="filter1_fn_1_208" x="-104" y="172" width="597" height="597" filterUnits="userSpaceOnUse" color-interpolation-filters="sRGB">
<feFlood flood-opacity="0" result="BackgroundImageFix"/>
<feBlend mode="normal" in="SourceGraphic" in2="BackgroundImageFix" result="shape"/>
<feGaussianBlur stdDeviation="75" result="effect1_foregroundBlur_1_208"/>
<feTurbulence type="fractalNoise" baseFrequency="2 2" stitchTiles="stitch" numOctaves="3" result="noise" seed="4299" />
<feColorMatrix in="noise" type="luminanceToAlpha" result="alphaNoise" />
<feComponentTransfer in="alphaNoise" result="coloredNoise1">
<feFuncA type="discrete" tableValues="0 0 0 0 0 0 0 0 0 0 0 0 0 0 0 0 1 1 1 1 1 1 1 1 1 1 1 1 1 1 1 1 1 1 0 0 0 0 0 0 0 0 0 0 0 0 0 0 0 0 0 0 0 0 0 0 0 0 0 0 0 0 0 0 0 0 0 0 0 0 0 0 0 0 0 0 0 0 0 0 0 0 0 0 0 0 0 0 0 0 0 0 0 0 0 0 0 0 0 0 "/>
</feComponentTransfer>
<feComposite operator="in" in2="effect1_foregroundBlur_1_208" in="coloredNoise1" result="noise1Clipped" />
<feFlood flood-color="rgba(0, 0, 0, 0.25)" result="color1Flood" />
<feComposite operator="in" in2="noise1Clipped" in="color1Flood" result="color1" />
<feMerge result="effect2_noise_1_208">
<feMergeNode in="effect1_foregroundBlur_1_208" />
<feMergeNode in="color1" />
</feMerge>
</filter>
<filter id="filter2_fn_1_208" x="-32" y="251" width="454" height="454" filterUnits="userSpaceOnUse" color-interpolation-filters="sRGB">
<feFlood flood-opacity="0" result="BackgroundImageFix"/>
<feBlend mode="normal" in="SourceGraphic" in2="BackgroundImageFix" result="shape"/>
<feGaussianBlur stdDeviation="75" result="effect1_foregroundBlur_1_208"/>
<feTurbulence type="fractalNoise" baseFrequency="2 2" stitchTiles="stitch" numOctaves="3" result="noise" seed="4299" />
<feColorMatrix in="noise" type="luminanceToAlpha" result="alphaNoise" />
<feComponentTransfer in="alphaNoise" result="coloredNoise1">
<feFuncA type="discrete" tableValues="0 0 0 0 0 0 0 0 0 0 0 0 0 0 0 0 1 1 1 1 1 1 1 1 1 1 1 1 1 1 1 1 1 1 0 0 0 0 0 0 0 0 0 0 0 0 0 0 0 0 0 0 0 0 0 0 0 0 0 0 0 0 0 0 0 0 0 0 0 0 0 0 0 0 0 0 0 0 0 0 0 0 0 0 0 0 0 0 0 0 0 0 0 0 0 0 0 0 0 0 "/>
</feComponentTransfer>
<feComposite operator="in" in2="effect1_foregroundBlur_1_208" in="coloredNoise1" result="noise1Clipped" />
<feFlood flood-color="rgba(0, 0, 0, 0.25)" result="color1Flood" />
<feComposite operator="in" in2="noise1Clipped" in="color1Flood" result="color1" />
<feMerge result="effect2_noise_1_208">
<feMergeNode in="effect1_foregroundBlur_1_208" />
<feMergeNode in="color1" />
</feMerge>
</filter>
<clipPath id="clip0_1_208">
<rect width="390" height="844" fill="white"/>
</clipPath>
<clipPath id="clip1_1_208">
<rect width="24" height="24" fill="white" transform="translate(46 780)"/>
</clipPath>
<clipPath id="clip2_1_208">
<rect width="26" height="26" fill="white" transform="translate(234 778)"/>
</clipPath>
<clipPath id="clip3_1_208">
<rect width="390" height="85" fill="white" transform="translate(0 155)"/>
</clipPath>
</defs>
</svg>
