<svg width="390" height="844" viewBox="0 0 390 844" fill="none" xmlns="http://www.w3.org/2000/svg">
<g clip-path="url(#clip0_7_76)">
<rect width="390" height="844" fill="#FDFFE6"/>
<g filter="url(#filter0_fn_7_76)">
<circle cx="112.5" cy="188.5" r="195.5" fill="#B9B5D4"/>
</g>
<g filter="url(#filter1_fn_7_76)">
<circle cx="173.5" cy="686.5" r="231.5" fill="#F9FFB4"/>
</g>
<path d="M29.6254 20.7231C30.2673 20.7231 30.876 20.8421 31.4516 21.0801C32.0271 21.3125 32.5362 21.6777 32.9789 22.1758C33.4271 22.6683 33.7785 23.3019 34.0331 24.0767C34.2877 24.8459 34.4149 25.7728 34.4149 26.8574V26.874C34.4149 28.2188 34.2212 29.3698 33.8339 30.3271C33.4465 31.2845 32.8904 32.0205 32.1654 32.5352C31.446 33.0443 30.5855 33.2988 29.5839 33.2988C28.8479 33.2988 28.1838 33.166 27.5917 32.9004C27.0051 32.6292 26.5181 32.2585 26.1308 31.7881C25.7489 31.3122 25.4916 30.7699 25.3588 30.1611L25.3422 30.0698H27.4423L27.4755 30.1528C27.5806 30.4295 27.73 30.673 27.9237 30.8833C28.1229 31.0936 28.3609 31.2568 28.6376 31.373C28.9198 31.4837 29.2352 31.5391 29.5839 31.5391C30.2147 31.5391 30.7294 31.3537 31.1278 30.9829C31.5318 30.6066 31.8334 30.1058 32.0326 29.4805C32.2374 28.8496 32.3536 28.1523 32.3812 27.3887C32.3868 27.3057 32.3895 27.2254 32.3895 27.1479C32.3895 27.0649 32.3895 26.9847 32.3895 26.9072L32.016 24.9067C32.016 24.453 31.9109 24.0407 31.7006 23.6699C31.4903 23.2992 31.2053 23.0059 30.8456 22.79C30.4914 22.5742 30.0902 22.4663 29.642 22.4663C29.2103 22.4663 28.8147 22.5715 28.455 22.7817C28.0953 22.992 27.8075 23.2798 27.5917 23.645C27.3759 24.0047 27.268 24.4087 27.268 24.8569V24.8735C27.268 25.3384 27.3703 25.7507 27.5751 26.1104C27.7798 26.4645 28.0593 26.744 28.4135 26.9487C28.7676 27.1535 29.1716 27.2559 29.6254 27.2559C30.0792 27.2559 30.4859 27.1562 30.8456 26.957C31.2053 26.7578 31.4903 26.4811 31.7006 26.127C31.9109 25.7728 32.016 25.3716 32.016 24.9233V24.9067H32.5141V27.1147H32.2235C32.0796 27.4302 31.8666 27.7235 31.5844 27.9946C31.3021 28.2658 30.9535 28.4844 30.5385 28.6504C30.129 28.8164 29.6475 28.8994 29.0941 28.8994C28.3305 28.8994 27.6553 28.7279 27.0687 28.3848C26.4822 28.0417 26.0201 27.5713 25.6825 26.9736C25.3505 26.376 25.1845 25.7008 25.1845 24.9482V24.9316C25.1845 24.1182 25.3726 23.396 25.7489 22.7651C26.1308 22.1287 26.6565 21.6307 27.3261 21.271C28.0012 20.9058 28.7676 20.7231 29.6254 20.7231ZM38.1835 31.3896C37.8072 31.3896 37.4918 31.2651 37.2372 31.0161C36.9882 30.7616 36.8637 30.4517 36.8637 30.0864C36.8637 29.7157 36.9882 29.4058 37.2372 29.1567C37.4918 28.9022 37.8072 28.7749 38.1835 28.7749C38.5653 28.7749 38.8808 28.9022 39.1298 29.1567C39.3788 29.4058 39.5033 29.7157 39.5033 30.0864C39.5033 30.4517 39.3788 30.7616 39.1298 31.0161C38.8808 31.2651 38.5653 31.3896 38.1835 31.3896ZM38.1835 25.2305C37.8072 25.2305 37.4918 25.106 37.2372 24.8569C36.9882 24.6024 36.8637 24.2925 36.8637 23.9272C36.8637 23.5565 36.9882 23.2466 37.2372 22.9976C37.4918 22.743 37.8072 22.6157 38.1835 22.6157C38.5653 22.6157 38.8808 22.743 39.1298 22.9976C39.3788 23.2466 39.5033 23.5565 39.5033 23.9272C39.5033 24.2925 39.3788 24.6024 39.1298 24.8569C38.8808 25.106 38.5653 25.2305 38.1835 25.2305ZM47.7626 33V30.7007H41.9022V28.9492C42.2177 28.4124 42.5331 27.8729 42.8485 27.3306C43.1695 26.7882 43.4932 26.2487 43.8197 25.7119C44.1517 25.1696 44.481 24.6356 44.8075 24.1099C45.1395 23.5786 45.4688 23.0557 45.7953 22.541C46.1273 22.0208 46.4594 21.5145 46.7914 21.022H49.8046V28.9326H51.4232V30.7007H49.8046V33H47.7626ZM43.8944 28.9824H47.7958V22.7319H47.6713C47.4278 23.1082 47.176 23.4956 46.9159 23.894C46.6613 24.2925 46.404 24.6992 46.1439 25.1143C45.8838 25.5293 45.6265 25.9471 45.372 26.3677C45.1174 26.7827 44.8656 27.2005 44.6166 27.6211C44.3676 28.0361 44.1268 28.4484 43.8944 28.8579V28.9824ZM56.3788 33V23.1304H56.2294L53.2494 25.2305V23.2217L56.3788 21.022H58.5121V33H56.3788Z" fill="black"/>
<rect opacity="0.35" x="349.5" y="20.5" width="24" height="12" rx="3.8" stroke="black"/>
<path opacity="0.4" d="M375 24.7811V28.8566C375.805 28.5114 376.328 27.7085 376.328 26.8189C376.328 25.9293 375.805 25.1263 375 24.7811Z" fill="black"/>
<rect x="351" y="22" width="21" height="9" rx="2.5" fill="black"/>
<path fill-rule="evenodd" clip-rule="evenodd" d="M333.271 23.104C335.758 23.1041 338.15 24.0262 339.952 25.6796C340.088 25.8073 340.305 25.8057 340.439 25.676L341.736 24.4126C341.804 24.3468 341.841 24.2577 341.841 24.165C341.84 24.0724 341.802 23.9837 341.733 23.9187C337.002 19.544 329.538 19.544 324.807 23.9187C324.739 23.9837 324.7 24.0723 324.699 24.165C324.699 24.2577 324.736 24.3468 324.804 24.4126L326.102 25.676C326.235 25.8059 326.452 25.8075 326.588 25.6796C328.391 24.0261 330.783 23.104 333.271 23.104ZM333.267 27.3243C334.624 27.3242 335.933 27.8359 336.939 28.76C337.076 28.8912 337.29 28.8883 337.423 28.7536L338.71 27.4343C338.778 27.3651 338.815 27.2712 338.814 27.1737C338.813 27.0761 338.774 26.9831 338.705 26.9153C335.641 24.0244 330.896 24.0244 327.832 26.9153C327.763 26.9831 327.724 27.0762 327.723 27.1738C327.722 27.2714 327.76 27.3652 327.827 27.4343L329.114 28.7536C329.247 28.8883 329.461 28.8912 329.597 28.76C330.603 27.8365 331.911 27.3248 333.267 27.3243ZM335.792 30.1178C335.794 30.2232 335.756 30.3247 335.689 30.3985L333.512 32.8533C333.449 32.9254 333.362 32.966 333.271 32.966C333.18 32.966 333.093 32.9254 333.029 32.8533L330.852 30.3985C330.785 30.3247 330.748 30.2231 330.75 30.1177C330.752 30.0124 330.793 29.9126 330.863 29.842C332.253 28.5281 334.289 28.5281 335.679 29.842C335.749 29.9127 335.79 30.0125 335.792 30.1178Z" fill="black"/>
<path fill-rule="evenodd" clip-rule="evenodd" d="M317.2 21.6824C317.2 21.0493 316.722 20.5361 316.133 20.5361H315.067C314.478 20.5361 314 21.0493 314 21.6824V31.6163C314 32.2494 314.478 32.7625 315.067 32.7625H316.133C316.722 32.7625 317.2 32.2494 317.2 31.6163V21.6824ZM309.766 22.9814H310.833C311.422 22.9814 311.899 23.5069 311.899 24.1552V31.5888C311.899 32.237 311.422 32.7625 310.833 32.7625H309.766C309.177 32.7625 308.699 32.237 308.699 31.5888V24.1552C308.699 23.5069 309.177 22.9814 309.766 22.9814ZM305.434 25.6305H304.367C303.778 25.6305 303.301 26.1627 303.301 26.8191V31.5739C303.301 32.2303 303.778 32.7625 304.367 32.7625H305.434C306.023 32.7625 306.501 32.2303 306.501 31.5739V26.8191C306.501 26.1627 306.023 25.6305 305.434 25.6305ZM300.133 28.0758H299.067C298.478 28.0758 298 28.6003 298 29.2475V31.5909C298 32.238 298.478 32.7625 299.067 32.7625H300.133C300.722 32.7625 301.2 32.238 301.2 31.5909V29.2475C301.2 28.6003 300.722 28.0758 300.133 28.0758Z" fill="black"/>
<g filter="url(#filter2_fn_7_76)">
<path d="M578 404.5C578 524.07 481.07 621 361.5 621C241.93 621 145 524.07 145 404.5C145 284.93 241.93 188 361.5 188C481.07 188 578 284.93 578 404.5Z" fill="#9CAA8F"/>
</g>
<path d="M134 558.281C134 558.667 134.115 558.958 134.344 559.156C134.583 559.344 135.016 559.438 135.641 559.438H136.625C136.812 559.417 136.953 559.406 137.047 559.406C138.151 559.406 139.13 558.979 139.984 558.125C140.849 557.26 141.281 556.13 141.281 554.734V554.047C141.281 552.786 140.875 551.786 140.062 551.047C139.26 550.297 138.115 549.922 136.625 549.922H136.203C136.016 549.943 135.88 549.953 135.797 549.953C134.943 549.953 134.422 550.172 134.234 550.609C134.099 550.922 134.031 552.365 134.031 554.938L134.016 555.234V555.875L134 556.328V558.281ZM131.953 569.594H131.641C131.057 569.594 130.604 569.458 130.281 569.188C129.958 568.917 129.797 568.604 129.797 568.25C129.797 567.885 129.938 567.318 130.219 566.547C130.5 565.766 130.641 564.906 130.641 563.969L130.672 563.25C130.682 563.01 130.688 562.771 130.688 562.531L130.703 562.172C130.714 561.932 130.719 561.693 130.719 561.453L130.75 560.031V557.203L130.766 556.156C130.766 555.812 130.766 555.469 130.766 555.125L130.734 554.453C130.724 554.224 130.719 554 130.719 553.781C130.719 553.562 130.677 552.938 130.594 551.906C130.521 550.875 130.438 550.177 130.344 549.812C130.26 549.448 130.219 549.188 130.219 549.031C130.219 548.604 130.542 548.323 131.188 548.188C132.323 547.948 134.156 547.828 136.688 547.828H137.812C141.188 547.828 143.406 549.047 144.469 551.484C144.802 552.245 144.969 553.078 144.969 553.984V554.375C144.969 555.177 144.797 556 144.453 556.844C143.797 558.458 142.677 559.615 141.094 560.312C140.51 560.573 139.625 560.844 138.438 561.125C137.25 561.396 136.375 561.714 135.812 562.078C134.719 562.797 134.172 563.651 134.172 564.641L134.594 567.328C134.594 567.932 134.344 568.464 133.844 568.922C133.354 569.37 132.724 569.594 131.953 569.594ZM154.875 560.797C155.583 560.797 156.083 560.688 156.375 560.469C156.667 560.25 156.812 560 156.812 559.719V559.062C156.812 558.312 156.536 557.693 155.984 557.203C155.432 556.714 154.828 556.469 154.172 556.469H153.766C152.818 556.469 151.99 556.87 151.281 557.672C150.573 558.464 150.219 559.333 150.219 560.281V560.547C150.219 560.911 150.552 561.094 151.219 561.094H151.578L151.672 561.078L152.844 561L153.625 560.938L154.156 560.875C154.25 560.865 154.375 560.849 154.531 560.828C154.698 560.807 154.812 560.797 154.875 560.797ZM154.234 570.203H153.547C151.464 570.203 149.792 569.5 148.531 568.094C147.969 567.469 147.531 566.677 147.219 565.719C146.906 564.75 146.75 563.792 146.75 562.844V562.141C146.75 561.193 146.948 560.198 147.344 559.156C148.104 557.125 149.396 555.745 151.219 555.016C152.156 554.63 153.151 554.438 154.203 554.438H154.547C156.005 554.438 157.208 554.88 158.156 555.766C158.698 556.276 159.104 556.891 159.375 557.609C159.656 558.318 159.797 558.958 159.797 559.531C159.797 560.792 159.401 561.615 158.609 562C158.068 562.26 156.828 562.505 154.891 562.734C152.964 562.964 151.906 563.104 151.719 563.156C150.812 563.385 150.359 563.792 150.359 564.375C150.359 565.385 150.823 566.229 151.75 566.906C152.427 567.406 153.396 567.656 154.656 567.656C155.135 567.656 155.911 567.505 156.984 567.203C158.057 566.901 158.646 566.75 158.75 566.75C159.292 566.75 159.562 566.995 159.562 567.484C159.562 568.099 158.979 568.708 157.812 569.312C156.656 569.906 155.464 570.203 154.234 570.203ZM169.422 569.938H168.828C167.328 569.938 166.25 569.292 165.594 568C165.052 566.948 164.781 565.219 164.781 562.812C164.781 560.406 164.651 558.755 164.391 557.859C164.297 557.526 164.036 557.146 163.609 556.719C163.182 556.292 162.969 555.922 162.969 555.609V555.406C162.969 555.135 163.214 554.839 163.703 554.516C164.193 554.193 164.474 553.964 164.547 553.828C164.63 553.682 164.786 553.177 165.016 552.312C165.255 551.438 165.5 550.828 165.75 550.484C166.01 550.13 166.354 549.953 166.781 549.953C167.219 549.953 167.526 550.078 167.703 550.328C167.891 550.578 168.073 551.094 168.25 551.875C168.438 552.656 168.641 553.188 168.859 553.469C169.078 553.74 169.609 554.026 170.453 554.328C171.297 554.63 171.719 555.005 171.719 555.453C171.719 555.849 171.276 556.203 170.391 556.516C169.516 556.828 168.964 557.214 168.734 557.672C168.297 558.557 168.078 560.125 168.078 562.375C168.078 564.625 168.271 566.005 168.656 566.516C169.042 567.016 169.667 567.323 170.531 567.438C171.406 567.552 171.844 567.88 171.844 568.422C171.844 568.839 171.594 569.198 171.094 569.5C170.604 569.792 170.047 569.938 169.422 569.938ZM184.547 568.406C184.547 568.271 184.62 568.005 184.766 567.609C184.911 567.203 185.021 566.797 185.094 566.391C185.177 565.984 185.219 565.208 185.219 564.062L185.266 561.688C185.266 561.688 185.266 560.01 185.266 556.656C185.266 554.24 185.245 552.828 185.203 552.422C185.172 552.005 185.036 551.51 184.797 550.938C184.557 550.354 184.438 549.865 184.438 549.469C184.438 549.062 184.63 548.724 185.016 548.453C185.401 548.182 185.896 548.047 186.5 548.047H186.875C187.667 548.047 188.318 548.203 188.828 548.516C189.349 548.828 189.609 549.276 189.609 549.859C189.609 550.089 189.536 550.411 189.391 550.828C189.245 551.234 189.109 551.688 188.984 552.188C188.859 552.688 188.797 555.016 188.797 559.172C188.797 563.328 188.901 565.677 189.109 566.219C189.318 566.75 189.667 567.078 190.156 567.203C190.656 567.328 191.458 567.391 192.562 567.391C193.667 567.391 194.479 567.307 195 567.141C195.521 566.974 196.047 566.781 196.578 566.562C197.109 566.344 197.505 566.234 197.766 566.234C198.474 566.234 198.828 566.708 198.828 567.656V568.016C198.828 568.807 198.536 569.359 197.953 569.672C197.547 569.891 196.714 570 195.453 570H192.281L191.891 569.984H191.484C188.401 569.984 186.474 569.901 185.703 569.734C184.932 569.568 184.547 569.125 184.547 568.406ZM202.844 563.438C200.948 559.25 200 556.906 200 556.406C200 555.906 200.182 555.552 200.547 555.344C200.911 555.135 201.469 555.031 202.219 555.031C202.969 555.031 203.505 555.401 203.828 556.141C203.87 556.224 204.005 556.849 204.234 558.016C204.464 559.182 204.906 560.74 205.562 562.688C206.219 564.635 206.724 565.609 207.078 565.609C207.161 565.609 207.307 565.474 207.516 565.203C208.036 564.516 208.599 563.255 209.203 561.422C209.818 559.578 210.172 557.943 210.266 556.516C210.307 555.901 210.38 555.505 210.484 555.328C210.766 554.859 211.25 554.625 211.938 554.625H212.344C213.292 554.625 213.766 554.995 213.766 555.734C213.766 556.182 213.578 556.87 213.203 557.797C212.839 558.724 212.562 559.495 212.375 560.109C210.656 565.88 209.401 569.568 208.609 571.172C207.818 572.786 206.948 574.036 206 574.922C205.062 575.818 204.104 576.266 203.125 576.266C202.146 576.266 201.656 575.953 201.656 575.328C201.656 574.891 202.104 574.495 203 574.141C203.906 573.786 204.547 573.391 204.922 572.953C205.651 572.109 206.016 571.151 206.016 570.078C206.016 569.484 205.599 568.479 204.766 567.062C203.932 565.635 203.292 564.427 202.844 563.438ZM218.75 569.547C218.74 569.547 218.724 569.547 218.703 569.547C217.505 569.547 216.906 569.135 216.906 568.312C216.906 567.917 217.01 567.427 217.219 566.844C217.427 566.26 217.547 565.672 217.578 565.078C217.609 564.474 217.625 563.552 217.625 562.312V559.391L217.656 558.578C217.677 558.036 217.688 557.651 217.688 557.422L217.531 555.812C217.531 555.448 217.854 555.266 218.5 555.266C219.156 555.266 219.828 555.443 220.516 555.797C221.203 556.151 221.625 556.328 221.781 556.328C221.948 556.328 222.255 556.224 222.703 556.016C223.161 555.807 223.698 555.583 224.312 555.344C224.938 555.094 225.578 554.969 226.234 554.969H226.641C227.422 554.969 228.115 555.182 228.719 555.609C229.333 556.026 229.776 556.609 230.047 557.359C230.328 558.099 230.526 559.464 230.641 561.453L230.688 562.312L230.719 563.172C230.75 563.672 230.786 564.214 230.828 564.797C230.87 565.38 231.01 565.995 231.25 566.641C231.49 567.276 231.609 567.703 231.609 567.922C231.609 568.849 230.901 569.312 229.484 569.312C228.88 569.312 228.438 569.193 228.156 568.953C227.875 568.703 227.734 568.286 227.734 567.703L227.766 567.125C227.766 563.073 227.474 560.312 226.891 558.844C226.432 557.708 225.625 557.141 224.469 557.141C223.917 557.141 223.375 557.281 222.844 557.562C222.323 557.833 221.917 558.276 221.625 558.891C221.104 559.984 220.844 562.089 220.844 565.203L220.969 568.031C220.969 568.479 220.755 568.844 220.328 569.125C219.901 569.406 219.375 569.547 218.75 569.547ZM240.062 559.5C240.323 559.5 241.156 558.76 242.562 557.281C242.948 556.875 243.318 556.448 243.672 556C244.026 555.552 244.349 555.229 244.641 555.031C244.932 554.823 245.37 554.719 245.953 554.719C247.141 554.719 247.734 554.979 247.734 555.5C247.734 555.604 247.052 556.443 245.688 558.016C244.333 559.578 243.656 560.688 243.656 561.344C243.656 561.667 244.505 563.01 246.203 565.375C247.911 567.74 248.766 568.932 248.766 568.953C248.766 569.401 248.302 569.625 247.375 569.625C246.448 569.625 245.703 569.385 245.141 568.906C245.068 568.844 244.427 567.865 243.219 565.969C242.021 564.073 241.172 563.125 240.672 563.125C240.307 563.125 240 563.401 239.75 563.953C239.5 564.495 239.375 565.172 239.375 565.984L239.438 566.812C239.469 567.229 239.484 567.5 239.484 567.625C239.484 568.865 238.536 569.484 236.641 569.484C235.786 569.484 235.359 568.948 235.359 567.875L235.406 567.5C235.594 565.958 235.688 564.516 235.688 563.172V560.641L235.703 560.109C235.714 559.755 235.719 559.401 235.719 559.047L235.75 557.984C235.75 557.63 235.75 557.276 235.75 556.922L235.781 554.812C235.781 552.531 235.74 551.135 235.656 550.625C235.573 550.104 235.479 549.661 235.375 549.297C235.281 548.922 235.234 548.693 235.234 548.609V548.234C235.234 548.036 235.385 547.849 235.688 547.672C235.99 547.495 236.401 547.406 236.922 547.406H237.344C238.115 547.406 238.625 547.719 238.875 548.344C239.062 548.812 239.156 549.88 239.156 551.547V554.828L239.188 556.797C239.188 558.599 239.479 559.5 240.062 559.5ZM252.297 562.391C251.839 562.391 251.609 562.125 251.609 561.594V561.234C251.609 560.536 251.771 560.135 252.094 560.031C252.417 559.917 253.906 559.859 256.562 559.859L259.625 559.812H260.203C260.807 559.812 261.109 560.083 261.109 560.625V560.969C261.089 561.115 261.078 561.229 261.078 561.312C261.078 561.833 260.88 562.141 260.484 562.234C260.099 562.318 258.651 562.359 256.141 562.359H255.438L255.094 562.375H254.391L253.922 562.391H252.297ZM92.9062 606.031H93.3906C94.3594 606.031 95.2135 605.615 95.9531 604.781C96.3594 604.323 96.5625 603.469 96.5625 602.219L96.5781 602.016V601.625C96.5781 600.844 96.2552 600.453 95.6094 600.453H95.1094L94.2969 600.516L93.875 600.562C92.9167 600.562 92.1302 600.833 91.5156 601.375C90.901 601.906 90.5938 602.542 90.5938 603.281V603.828C90.5938 604.391 90.7917 604.901 91.1875 605.359C91.5938 605.807 92.1667 606.031 92.9062 606.031ZM100.812 606.781C100.812 607.479 100.109 607.828 98.7031 607.828C98.4531 607.828 97.9948 607.703 97.3281 607.453C96.6719 607.193 96.2552 607.062 96.0781 607.062C95.9115 607.062 95.349 607.245 94.3906 607.609C93.4323 607.964 92.5885 608.141 91.8594 608.141H91.5C90.3646 608.141 89.3854 607.771 88.5625 607.031C87.7396 606.281 87.3281 605.26 87.3281 603.969C87.3281 601.344 88.9896 599.708 92.3125 599.062C94.4688 598.635 95.5833 598.406 95.6562 598.375C96.1667 598.115 96.4219 597.646 96.4219 596.969C96.4219 596.281 96.2031 595.708 95.7656 595.25C95.3385 594.781 94.75 594.547 94 594.547C93.2604 594.547 92.3854 594.802 91.375 595.312C90.3646 595.812 89.6719 596.062 89.2969 596.062C88.6198 596.062 88.2812 595.599 88.2812 594.672C88.2812 594.089 88.8125 593.536 89.875 593.016C90.9479 592.495 92.1667 592.234 93.5312 592.234H94.3125C95.3333 592.234 96.2396 592.427 97.0312 592.812C97.8229 593.198 98.4271 593.719 98.8438 594.375C99.4375 595.302 99.7344 597.422 99.7344 600.734C99.7344 602.609 99.7708 603.776 99.8438 604.234C99.9271 604.693 100.109 605.156 100.391 605.625C100.672 606.083 100.812 606.469 100.812 606.781ZM124.047 600.344V599.469C124.047 597.938 123.745 596.719 123.141 595.812C122.536 594.906 121.734 594.453 120.734 594.453H120.594L120.438 594.469C119.969 594.469 119.464 594.604 118.922 594.875C118.391 595.146 117.948 595.562 117.594 596.125C117.24 596.688 117.062 597.969 117.062 599.969V601.75C117.062 603.302 117.214 604.302 117.516 604.75C118.026 605.51 118.818 605.891 119.891 605.891H120.188C121.302 605.891 122.224 605.396 122.953 604.406C123.682 603.406 124.047 602.052 124.047 600.344ZM114.969 614.516C113.75 614.516 113.141 614.078 113.141 613.203C113.141 612.922 113.219 612.542 113.375 612.062C113.531 611.594 113.635 611.172 113.688 610.797C113.74 610.432 113.802 609.37 113.875 607.609C113.948 605.839 113.984 604.078 113.984 602.328V597.484C113.984 596.38 113.896 595.536 113.719 594.953C113.542 594.359 113.453 593.979 113.453 593.812C113.453 593.25 114.099 592.969 115.391 592.969C115.526 592.969 115.786 593.005 116.172 593.078L116.641 593.188C117.141 593.271 117.49 593.312 117.688 593.312C117.885 593.312 118.406 593.161 119.25 592.859C120.094 592.557 120.844 592.406 121.5 592.406H122.219C122.979 592.406 123.714 592.615 124.422 593.031C125.13 593.438 125.698 593.932 126.125 594.516C127.021 595.755 127.469 597.245 127.469 598.984V599.766C127.469 600.922 127.271 602.031 126.875 603.094C125.781 606.042 123.547 607.599 120.172 607.766C119.214 607.807 118.49 607.969 118 608.25C117.51 608.531 117.266 609.052 117.266 609.812C117.266 610.083 117.339 610.51 117.484 611.094C117.63 611.677 117.703 612.109 117.703 612.391C117.703 613.016 117.443 613.526 116.922 613.922C116.411 614.318 115.76 614.516 114.969 614.516ZM131.219 586.406C131.219 585.583 131.896 585.172 133.25 585.172H133.531C134.5 585.172 135.047 585.573 135.172 586.375V589.766L135.141 590.938V591.516L135.094 593.297V593.875L135.078 594.188C135.078 594.385 135.078 594.583 135.078 594.781L135.062 595.078C135.062 595.276 135.062 595.474 135.062 595.672L135.047 595.969V597.438L135.094 599.438C135.104 599.625 135.109 600.099 135.109 600.859C135.109 601.62 135.208 602.432 135.406 603.297C135.615 604.151 135.875 604.833 136.188 605.344C136.5 605.844 136.656 606.271 136.656 606.625C136.656 606.979 136.438 607.292 136 607.562C135.573 607.833 134.953 607.969 134.141 607.969H133.594C132.125 607.969 131.391 607.385 131.391 606.219C131.391 606.135 131.432 605.865 131.516 605.406C131.599 604.948 131.646 604.109 131.656 602.891L131.75 599.156L131.766 598.859C131.766 598.661 131.766 598.464 131.766 598.266L131.781 597.672C131.781 597.474 131.781 597.276 131.781 597.078L131.797 596.781C131.797 596.583 131.797 596.385 131.797 596.188L131.812 595.594C131.812 595.396 131.812 595.198 131.812 595L131.828 594.406V593.797L131.844 593.203V590.266C131.844 589.078 131.74 588.182 131.531 587.578C131.323 586.974 131.219 586.583 131.219 586.406ZM145.125 606.031H145.609C146.578 606.031 147.432 605.615 148.172 604.781C148.578 604.323 148.781 603.469 148.781 602.219L148.797 602.016V601.625C148.797 600.844 148.474 600.453 147.828 600.453H147.328L146.516 600.516L146.094 600.562C145.135 600.562 144.349 600.833 143.734 601.375C143.12 601.906 142.812 602.542 142.812 603.281V603.828C142.812 604.391 143.01 604.901 143.406 605.359C143.812 605.807 144.385 606.031 145.125 606.031ZM153.031 606.781C153.031 607.479 152.328 607.828 150.922 607.828C150.672 607.828 150.214 607.703 149.547 607.453C148.891 607.193 148.474 607.062 148.297 607.062C148.13 607.062 147.568 607.245 146.609 607.609C145.651 607.964 144.807 608.141 144.078 608.141H143.719C142.583 608.141 141.604 607.771 140.781 607.031C139.958 606.281 139.547 605.26 139.547 603.969C139.547 601.344 141.208 599.708 144.531 599.062C146.688 598.635 147.802 598.406 147.875 598.375C148.385 598.115 148.641 597.646 148.641 596.969C148.641 596.281 148.422 595.708 147.984 595.25C147.557 594.781 146.969 594.547 146.219 594.547C145.479 594.547 144.604 594.802 143.594 595.312C142.583 595.812 141.891 596.062 141.516 596.062C140.839 596.062 140.5 595.599 140.5 594.672C140.5 594.089 141.031 593.536 142.094 593.016C143.167 592.495 144.385 592.234 145.75 592.234H146.531C147.552 592.234 148.458 592.427 149.25 592.812C150.042 593.198 150.646 593.719 151.062 594.375C151.656 595.302 151.953 597.422 151.953 600.734C151.953 602.609 151.99 603.776 152.062 604.234C152.146 604.693 152.328 605.156 152.609 605.625C152.891 606.083 153.031 606.469 153.031 606.781ZM163.062 608.156H162.719C161.719 608.156 160.792 607.969 159.938 607.594C158.26 606.854 157.125 605.62 156.531 603.891C156.198 602.911 156.031 601.87 156.031 600.766V600.406C156.031 599.177 156.214 598.062 156.578 597.062C157.276 595.146 158.552 593.776 160.406 592.953C161.292 592.568 162.38 592.375 163.672 592.375C164.964 592.375 166.021 592.635 166.844 593.156C167.677 593.667 168.094 594.292 168.094 595.031C168.094 595.833 167.688 596.234 166.875 596.234C166.635 596.234 166.286 596.099 165.828 595.828C165.37 595.557 165.109 595.406 165.047 595.375C164.318 595.031 163.583 594.859 162.844 594.859C161.833 594.859 161 595.333 160.344 596.281C159.688 597.219 159.359 598.562 159.359 600.312C159.359 602.052 159.745 603.37 160.516 604.266C161.297 605.161 162.307 605.609 163.547 605.609C164.214 605.609 165.057 605.464 166.078 605.172C167.109 604.87 167.698 604.719 167.844 604.719C168.26 604.719 168.469 604.948 168.469 605.406C168.469 606.021 167.875 606.635 166.688 607.25C165.51 607.854 164.302 608.156 163.062 608.156ZM179.078 598.797C179.786 598.797 180.286 598.688 180.578 598.469C180.87 598.25 181.016 598 181.016 597.719V597.062C181.016 596.312 180.74 595.693 180.188 595.203C179.635 594.714 179.031 594.469 178.375 594.469H177.969C177.021 594.469 176.193 594.87 175.484 595.672C174.776 596.464 174.422 597.333 174.422 598.281V598.547C174.422 598.911 174.755 599.094 175.422 599.094H175.781L175.875 599.078L177.047 599L177.828 598.938L178.359 598.875C178.453 598.865 178.578 598.849 178.734 598.828C178.901 598.807 179.016 598.797 179.078 598.797ZM178.438 608.203H177.75C175.667 608.203 173.995 607.5 172.734 606.094C172.172 605.469 171.734 604.677 171.422 603.719C171.109 602.75 170.953 601.792 170.953 600.844V600.141C170.953 599.193 171.151 598.198 171.547 597.156C172.307 595.125 173.599 593.745 175.422 593.016C176.359 592.63 177.354 592.438 178.406 592.438H178.75C180.208 592.438 181.411 592.88 182.359 593.766C182.901 594.276 183.307 594.891 183.578 595.609C183.859 596.318 184 596.958 184 597.531C184 598.792 183.604 599.615 182.812 600C182.271 600.26 181.031 600.505 179.094 600.734C177.167 600.964 176.109 601.104 175.922 601.156C175.016 601.385 174.562 601.792 174.562 602.375C174.562 603.385 175.026 604.229 175.953 604.906C176.63 605.406 177.599 605.656 178.859 605.656C179.339 605.656 180.115 605.505 181.188 605.203C182.26 604.901 182.849 604.75 182.953 604.75C183.495 604.75 183.766 604.995 183.766 605.484C183.766 606.099 183.182 606.708 182.016 607.312C180.859 607.906 179.667 608.203 178.438 608.203ZM203.609 587.625C202.943 587.625 202.406 587.87 202 588.359C201.594 588.849 201.391 589.474 201.391 590.234C201.391 590.995 201.505 591.516 201.734 591.797C201.964 592.078 202.49 592.432 203.312 592.859C204.146 593.286 204.562 593.693 204.562 594.078C204.562 594.38 204.141 594.734 203.297 595.141C202.682 595.432 202.234 595.984 201.953 596.797C201.474 598.161 201.234 600.146 201.234 602.75C201.234 603.469 201.344 604.245 201.562 605.078C201.792 605.911 201.906 606.432 201.906 606.641C201.906 607.141 201.682 607.562 201.234 607.906C200.786 608.25 200.208 608.422 199.5 608.422C198.802 608.422 198.229 608.24 197.781 607.875C197.333 607.51 197.109 607.016 197.109 606.391C197.109 606.245 197.198 605.88 197.375 605.297C197.562 604.714 197.688 604.245 197.75 603.891C197.812 603.536 197.844 602.776 197.844 601.609L197.812 600.875L197.797 600.109C197.797 598.276 197.724 597.052 197.578 596.438C197.443 595.812 197.198 595.302 196.844 594.906C196.5 594.51 196.328 594.161 196.328 593.859C196.328 593.776 196.724 593.083 197.516 591.781C197.672 591.521 197.932 590.812 198.297 589.656C198.661 588.49 199.083 587.599 199.562 586.984C200.042 586.359 200.641 585.88 201.359 585.547C202.078 585.214 202.776 585.047 203.453 585.047H204.234C205.005 585.047 205.609 585.208 206.047 585.531C206.484 585.854 206.703 586.13 206.703 586.359V586.625C206.703 587.365 206.24 587.734 205.312 587.734C205.156 587.734 204.99 587.724 204.812 587.703C204.323 587.651 203.922 587.625 203.609 587.625ZM214.234 606.188H214.547C215.599 606.188 216.464 605.724 217.141 604.797C217.818 603.87 218.156 602.698 218.156 601.281L218.188 600.938L218.203 600.406V599.703C218.203 598.151 217.885 596.875 217.25 595.875C216.625 594.865 215.786 594.359 214.734 594.359H214.422C213.391 594.359 212.521 594.87 211.812 595.891C211.115 596.911 210.766 598.266 210.766 599.953V601.016C210.786 601.266 210.797 601.438 210.797 601.531C210.797 602.719 211.125 603.792 211.781 604.75C212.438 605.708 213.255 606.188 214.234 606.188ZM221.734 599.922V600.438C221.734 601.365 221.583 602.318 221.281 603.297C220.667 605.286 219.458 606.714 217.656 607.578C216.615 608.078 215.583 608.328 214.562 608.328H214.031C213.062 608.328 212.161 608.13 211.328 607.734C209.672 606.943 208.573 605.63 208.031 603.797C207.74 602.828 207.594 601.844 207.594 600.844V600.047C207.594 599.068 207.745 598.089 208.047 597.109C208.641 595.172 209.818 593.786 211.578 592.953C212.484 592.516 213.411 592.297 214.359 592.297H215.141C216.036 592.297 216.922 592.49 217.797 592.875C219.547 593.646 220.724 595.021 221.328 597C221.599 597.875 221.734 598.849 221.734 599.922ZM232.578 595.656C231.599 595.656 230.839 596.146 230.297 597.125C229.755 598.094 229.484 599.578 229.484 601.578C229.484 602.464 229.521 603.094 229.594 603.469C229.667 603.833 229.776 604.292 229.922 604.844C230.078 605.385 230.156 605.859 230.156 606.266C230.156 606.661 229.917 607.026 229.438 607.359C228.958 607.693 228.333 607.859 227.562 607.859L227.297 607.844H227.016C226.516 607.844 226.099 607.703 225.766 607.422C225.443 607.141 225.281 606.823 225.281 606.469V606.219C225.281 606.146 225.38 605.802 225.578 605.188C225.776 604.573 225.891 603.979 225.922 603.406C225.953 602.833 225.969 602.062 225.969 601.094V599.359L225.953 599.078C225.953 598.891 225.953 598.703 225.953 598.516L225.922 597.672C225.911 597.484 225.906 597.12 225.906 596.578C225.906 596.026 225.807 595.505 225.609 595.016C225.422 594.516 225.328 594.193 225.328 594.047C225.328 593.422 225.875 593.109 226.969 593.109C228.062 593.109 228.854 593.406 229.344 594C229.49 594.177 229.641 594.266 229.797 594.266C229.964 594.266 230.234 594.135 230.609 593.875C231.651 593.167 232.526 592.812 233.234 592.812H233.484C234.109 592.812 234.583 592.953 234.906 593.234C235.24 593.516 235.406 593.891 235.406 594.359C235.406 595.286 234.891 595.75 233.859 595.75C233.453 595.688 233.026 595.656 232.578 595.656ZM252.938 607.938H252.344C250.844 607.938 249.766 607.292 249.109 606C248.568 604.948 248.297 603.219 248.297 600.812C248.297 598.406 248.167 596.755 247.906 595.859C247.812 595.526 247.552 595.146 247.125 594.719C246.698 594.292 246.484 593.922 246.484 593.609V593.406C246.484 593.135 246.729 592.839 247.219 592.516C247.708 592.193 247.99 591.964 248.062 591.828C248.146 591.682 248.302 591.177 248.531 590.312C248.771 589.438 249.016 588.828 249.266 588.484C249.526 588.13 249.87 587.953 250.297 587.953C250.734 587.953 251.042 588.078 251.219 588.328C251.406 588.578 251.589 589.094 251.766 589.875C251.953 590.656 252.156 591.188 252.375 591.469C252.594 591.74 253.125 592.026 253.969 592.328C254.812 592.63 255.234 593.005 255.234 593.453C255.234 593.849 254.792 594.203 253.906 594.516C253.031 594.828 252.479 595.214 252.25 595.672C251.812 596.557 251.594 598.125 251.594 600.375C251.594 602.625 251.786 604.005 252.172 604.516C252.557 605.016 253.182 605.323 254.047 605.438C254.922 605.552 255.359 605.88 255.359 606.422C255.359 606.839 255.109 607.198 254.609 607.5C254.12 607.792 253.562 607.938 252.938 607.938ZM266.297 595.656C265.318 595.656 264.557 596.146 264.016 597.125C263.474 598.094 263.203 599.578 263.203 601.578C263.203 602.464 263.24 603.094 263.312 603.469C263.385 603.833 263.495 604.292 263.641 604.844C263.797 605.385 263.875 605.859 263.875 606.266C263.875 606.661 263.635 607.026 263.156 607.359C262.677 607.693 262.052 607.859 261.281 607.859L261.016 607.844H260.734C260.234 607.844 259.818 607.703 259.484 607.422C259.161 607.141 259 606.823 259 606.469V606.219C259 606.146 259.099 605.802 259.297 605.188C259.495 604.573 259.609 603.979 259.641 603.406C259.672 602.833 259.688 602.062 259.688 601.094V599.359L259.672 599.078C259.672 598.891 259.672 598.703 259.672 598.516L259.641 597.672C259.63 597.484 259.625 597.12 259.625 596.578C259.625 596.026 259.526 595.505 259.328 595.016C259.141 594.516 259.047 594.193 259.047 594.047C259.047 593.422 259.594 593.109 260.688 593.109C261.781 593.109 262.573 593.406 263.062 594C263.208 594.177 263.359 594.266 263.516 594.266C263.682 594.266 263.953 594.135 264.328 593.875C265.37 593.167 266.245 592.812 266.953 592.812H267.203C267.828 592.812 268.302 592.953 268.625 593.234C268.958 593.516 269.125 593.891 269.125 594.359C269.125 595.286 268.609 595.75 267.578 595.75C267.172 595.688 266.745 595.656 266.297 595.656ZM275.344 593.984C275.479 594.432 275.547 596.052 275.547 598.844C275.547 601.635 275.651 603.323 275.859 603.906C276.297 605.135 277.078 605.75 278.203 605.75C279.578 605.75 280.573 605.219 281.188 604.156C281.802 603.083 282.109 601.266 282.109 598.703L282.141 597.859V597.031C282.141 596.469 282.099 595.896 282.016 595.312C281.943 594.729 281.906 594.406 281.906 594.344C281.906 593.854 282.078 593.51 282.422 593.312C282.766 593.104 283.271 593 283.938 593C284.604 593 285.031 593.25 285.219 593.75C285.344 594.083 285.406 595.74 285.406 598.719C285.406 601.688 285.568 603.839 285.891 605.172C286.036 605.745 286.109 606.042 286.109 606.062V606.359C286.109 606.63 285.948 606.88 285.625 607.109C285.312 607.339 284.865 607.453 284.281 607.453C283.698 607.453 283.135 607.328 282.594 607.078C282.052 606.818 281.719 606.688 281.594 606.688C281.479 606.688 280.932 606.875 279.953 607.25C278.974 607.625 278.104 607.812 277.344 607.812H276.938C276.104 607.812 275.349 607.625 274.672 607.25C273.995 606.865 273.469 606.318 273.094 605.609C272.542 604.557 272.266 602.323 272.266 598.906C272.266 596.917 272.198 595.688 272.062 595.219C272.052 595.177 271.984 594.99 271.859 594.656C271.734 594.323 271.672 594.089 271.672 593.953V593.609C271.672 593.036 272.214 592.75 273.297 592.75H273.672C274.536 592.75 275.094 593.161 275.344 593.984ZM297.234 598.797C297.943 598.797 298.443 598.688 298.734 598.469C299.026 598.25 299.172 598 299.172 597.719V597.062C299.172 596.312 298.896 595.693 298.344 595.203C297.792 594.714 297.188 594.469 296.531 594.469H296.125C295.177 594.469 294.349 594.87 293.641 595.672C292.932 596.464 292.578 597.333 292.578 598.281V598.547C292.578 598.911 292.911 599.094 293.578 599.094H293.938L294.031 599.078L295.203 599L295.984 598.938L296.516 598.875C296.609 598.865 296.734 598.849 296.891 598.828C297.057 598.807 297.172 598.797 297.234 598.797ZM296.594 608.203H295.906C293.823 608.203 292.151 607.5 290.891 606.094C290.328 605.469 289.891 604.677 289.578 603.719C289.266 602.75 289.109 601.792 289.109 600.844V600.141C289.109 599.193 289.307 598.198 289.703 597.156C290.464 595.125 291.755 593.745 293.578 593.016C294.516 592.63 295.51 592.438 296.562 592.438H296.906C298.365 592.438 299.568 592.88 300.516 593.766C301.057 594.276 301.464 594.891 301.734 595.609C302.016 596.318 302.156 596.958 302.156 597.531C302.156 598.792 301.76 599.615 300.969 600C300.427 600.26 299.188 600.505 297.25 600.734C295.323 600.964 294.266 601.104 294.078 601.156C293.172 601.385 292.719 601.792 292.719 602.375C292.719 603.385 293.182 604.229 294.109 604.906C294.786 605.406 295.755 605.656 297.016 605.656C297.495 605.656 298.271 605.505 299.344 605.203C300.417 604.901 301.005 604.75 301.109 604.75C301.651 604.75 301.922 604.995 301.922 605.484C301.922 606.099 301.339 606.708 300.172 607.312C299.016 607.906 297.823 608.203 296.594 608.203ZM126.312 637.5C125.417 636.708 124.969 635.688 124.969 634.438C124.969 633.177 125.505 632.151 126.578 631.359C127.651 630.557 129.016 630.156 130.672 630.156C132.328 630.156 133.536 630.359 134.297 630.766C135.057 631.161 135.438 631.682 135.438 632.328C135.438 633.214 135.151 633.656 134.578 633.656C134.38 633.656 133.854 633.443 133 633.016C132.146 632.589 131.318 632.375 130.516 632.375C129.714 632.375 129.109 632.557 128.703 632.922C128.307 633.286 128.109 633.755 128.109 634.328C128.109 634.901 128.495 635.411 129.266 635.859C129.526 636.016 130.37 636.38 131.797 636.953C133.234 637.516 134.245 638.052 134.828 638.562C135.734 639.365 136.188 640.406 136.188 641.688C136.188 642.969 135.651 644.047 134.578 644.922C133.516 645.786 132.141 646.219 130.453 646.219C127.589 646.219 125.812 645.661 125.125 644.547C124.906 644.193 124.797 643.88 124.797 643.609C124.797 642.703 125.078 642.25 125.641 642.25C125.807 642.25 126.417 642.531 127.469 643.094C128.531 643.646 129.474 643.922 130.297 643.922C131.13 643.922 131.786 643.745 132.266 643.391C132.745 643.036 132.984 642.557 132.984 641.953C132.984 641.339 132.604 640.776 131.844 640.266C131.531 640.057 130.672 639.672 129.266 639.109C127.859 638.536 126.875 638 126.312 637.5ZM145.703 644.188H146.016C147.068 644.188 147.932 643.724 148.609 642.797C149.286 641.87 149.625 640.698 149.625 639.281L149.656 638.938L149.672 638.406V637.703C149.672 636.151 149.354 634.875 148.719 633.875C148.094 632.865 147.255 632.359 146.203 632.359H145.891C144.859 632.359 143.99 632.87 143.281 633.891C142.583 634.911 142.234 636.266 142.234 637.953V639.016C142.255 639.266 142.266 639.438 142.266 639.531C142.266 640.719 142.594 641.792 143.25 642.75C143.906 643.708 144.724 644.188 145.703 644.188ZM153.203 637.922V638.438C153.203 639.365 153.052 640.318 152.75 641.297C152.135 643.286 150.927 644.714 149.125 645.578C148.083 646.078 147.052 646.328 146.031 646.328H145.5C144.531 646.328 143.63 646.13 142.797 645.734C141.141 644.943 140.042 643.63 139.5 641.797C139.208 640.828 139.062 639.844 139.062 638.844V638.047C139.062 637.068 139.214 636.089 139.516 635.109C140.109 633.172 141.286 631.786 143.047 630.953C143.953 630.516 144.88 630.297 145.828 630.297H146.609C147.505 630.297 148.391 630.49 149.266 630.875C151.016 631.646 152.193 633.021 152.797 635C153.068 635.875 153.203 636.849 153.203 637.922ZM160.062 631.984C160.198 632.432 160.266 634.052 160.266 636.844C160.266 639.635 160.37 641.323 160.578 641.906C161.016 643.135 161.797 643.75 162.922 643.75C164.297 643.75 165.292 643.219 165.906 642.156C166.521 641.083 166.828 639.266 166.828 636.703L166.859 635.859V635.031C166.859 634.469 166.818 633.896 166.734 633.312C166.661 632.729 166.625 632.406 166.625 632.344C166.625 631.854 166.797 631.51 167.141 631.312C167.484 631.104 167.99 631 168.656 631C169.323 631 169.75 631.25 169.938 631.75C170.062 632.083 170.125 633.74 170.125 636.719C170.125 639.688 170.286 641.839 170.609 643.172C170.755 643.745 170.828 644.042 170.828 644.062V644.359C170.828 644.63 170.667 644.88 170.344 645.109C170.031 645.339 169.583 645.453 169 645.453C168.417 645.453 167.854 645.328 167.312 645.078C166.771 644.818 166.438 644.688 166.312 644.688C166.198 644.688 165.651 644.875 164.672 645.25C163.693 645.625 162.823 645.812 162.062 645.812H161.656C160.823 645.812 160.068 645.625 159.391 645.25C158.714 644.865 158.188 644.318 157.812 643.609C157.26 642.557 156.984 640.323 156.984 636.906C156.984 634.917 156.917 633.688 156.781 633.219C156.771 633.177 156.703 632.99 156.578 632.656C156.453 632.323 156.391 632.089 156.391 631.953V631.609C156.391 631.036 156.932 630.75 158.016 630.75H158.391C159.255 630.75 159.812 631.161 160.062 631.984ZM174.844 624.406C174.844 623.583 175.521 623.172 176.875 623.172H177.156C178.125 623.172 178.672 623.573 178.797 624.375V627.766L178.766 628.938V629.516L178.719 631.297V631.875L178.703 632.188C178.703 632.385 178.703 632.583 178.703 632.781L178.688 633.078C178.688 633.276 178.688 633.474 178.688 633.672L178.672 633.969V635.438L178.719 637.438C178.729 637.625 178.734 638.099 178.734 638.859C178.734 639.62 178.833 640.432 179.031 641.297C179.24 642.151 179.5 642.833 179.812 643.344C180.125 643.844 180.281 644.271 180.281 644.625C180.281 644.979 180.062 645.292 179.625 645.562C179.198 645.833 178.578 645.969 177.766 645.969H177.219C175.75 645.969 175.016 645.385 175.016 644.219C175.016 644.135 175.057 643.865 175.141 643.406C175.224 642.948 175.271 642.109 175.281 640.891L175.375 637.156L175.391 636.859C175.391 636.661 175.391 636.464 175.391 636.266L175.406 635.672C175.406 635.474 175.406 635.276 175.406 635.078L175.422 634.781C175.422 634.583 175.422 634.385 175.422 634.188L175.438 633.594C175.438 633.396 175.438 633.198 175.438 633L175.453 632.406V631.797L175.469 631.203V628.266C175.469 627.078 175.365 626.182 175.156 625.578C174.948 624.974 174.844 624.583 174.844 624.406ZM187.391 643.828C187.391 644.724 186.901 645.172 185.922 645.172C184.578 645.172 183.906 644.526 183.906 643.234L184 642.703L184.156 642.188L184.297 641.656C184.443 641.01 184.516 640.193 184.516 639.203L184.562 634.828C184.562 633.005 184.568 632.068 184.578 632.016C184.672 631.599 185.031 631.391 185.656 631.391L188.625 631.703C188.958 631.703 189.479 631.594 190.188 631.375C190.906 631.146 191.688 631.031 192.531 631.031C193.375 631.031 194.385 631.365 195.562 632.031C196.031 632.292 196.307 632.422 196.391 632.422C196.776 632.422 197.438 632.167 198.375 631.656C199.323 631.146 200.224 630.891 201.078 630.891C203.016 630.891 204.333 631.766 205.031 633.516C205.396 634.422 205.604 635.656 205.656 637.219L205.688 638.531C205.708 639.531 205.729 640.245 205.75 640.672C205.781 641.099 205.896 641.62 206.094 642.234C206.292 642.839 206.391 643.333 206.391 643.719C206.391 644.104 206.224 644.453 205.891 644.766C205.557 645.068 205.135 645.219 204.625 645.219C203.771 645.219 203.276 644.932 203.141 644.359C203.109 644.245 203.083 643.979 203.062 643.562C203.052 643.135 203.042 642.849 203.031 642.703L202.922 641.625C202.63 638.188 202.37 636.167 202.141 635.562C201.703 634.344 200.891 633.734 199.703 633.734C198.745 633.734 198.073 634.151 197.688 634.984C197.198 636.036 196.953 637.99 196.953 640.844C196.953 641.26 196.979 641.656 197.031 642.031L197.125 642.578C197.24 643.182 197.297 643.542 197.297 643.656C197.297 644.208 197.083 644.677 196.656 645.062C196.24 645.448 195.625 645.641 194.812 645.641C194 645.641 193.49 645.505 193.281 645.234C193.083 644.964 192.984 644.698 192.984 644.438C192.984 644.177 193.036 643.776 193.141 643.234C193.255 642.682 193.318 642.297 193.328 642.078C193.349 641.849 193.359 640.766 193.359 638.828C193.359 636.88 193.245 635.562 193.016 634.875C192.693 633.917 192.057 633.438 191.109 633.438C190.401 633.438 189.76 633.693 189.188 634.203C188.615 634.714 188.224 635.255 188.016 635.828C187.599 636.953 187.391 639.62 187.391 643.828ZM215.031 644.031H215.516C216.484 644.031 217.339 643.615 218.078 642.781C218.484 642.323 218.688 641.469 218.688 640.219L218.703 640.016V639.625C218.703 638.844 218.38 638.453 217.734 638.453H217.234L216.422 638.516L216 638.562C215.042 638.562 214.255 638.833 213.641 639.375C213.026 639.906 212.719 640.542 212.719 641.281V641.828C212.719 642.391 212.917 642.901 213.312 643.359C213.719 643.807 214.292 644.031 215.031 644.031ZM222.938 644.781C222.938 645.479 222.234 645.828 220.828 645.828C220.578 645.828 220.12 645.703 219.453 645.453C218.797 645.193 218.38 645.062 218.203 645.062C218.036 645.062 217.474 645.245 216.516 645.609C215.557 645.964 214.714 646.141 213.984 646.141H213.625C212.49 646.141 211.51 645.771 210.688 645.031C209.865 644.281 209.453 643.26 209.453 641.969C209.453 639.344 211.115 637.708 214.438 637.062C216.594 636.635 217.708 636.406 217.781 636.375C218.292 636.115 218.547 635.646 218.547 634.969C218.547 634.281 218.328 633.708 217.891 633.25C217.464 632.781 216.875 632.547 216.125 632.547C215.385 632.547 214.51 632.802 213.5 633.312C212.49 633.812 211.797 634.062 211.422 634.062C210.745 634.062 210.406 633.599 210.406 632.672C210.406 632.089 210.938 631.536 212 631.016C213.073 630.495 214.292 630.234 215.656 630.234H216.438C217.458 630.234 218.365 630.427 219.156 630.812C219.948 631.198 220.552 631.719 220.969 632.375C221.562 633.302 221.859 635.422 221.859 638.734C221.859 640.609 221.896 641.776 221.969 642.234C222.052 642.693 222.234 643.156 222.516 643.625C222.797 644.083 222.938 644.469 222.938 644.781ZM232.469 645.938H231.875C230.375 645.938 229.297 645.292 228.641 644C228.099 642.948 227.828 641.219 227.828 638.812C227.828 636.406 227.698 634.755 227.438 633.859C227.344 633.526 227.083 633.146 226.656 632.719C226.229 632.292 226.016 631.922 226.016 631.609V631.406C226.016 631.135 226.26 630.839 226.75 630.516C227.24 630.193 227.521 629.964 227.594 629.828C227.677 629.682 227.833 629.177 228.062 628.312C228.302 627.438 228.547 626.828 228.797 626.484C229.057 626.13 229.401 625.953 229.828 625.953C230.266 625.953 230.573 626.078 230.75 626.328C230.938 626.578 231.12 627.094 231.297 627.875C231.484 628.656 231.688 629.188 231.906 629.469C232.125 629.74 232.656 630.026 233.5 630.328C234.344 630.63 234.766 631.005 234.766 631.453C234.766 631.849 234.323 632.203 233.438 632.516C232.562 632.828 232.01 633.214 231.781 633.672C231.344 634.557 231.125 636.125 231.125 638.375C231.125 640.625 231.318 642.005 231.703 642.516C232.089 643.016 232.714 643.323 233.578 643.438C234.453 643.552 234.891 643.88 234.891 644.422C234.891 644.839 234.641 645.198 234.141 645.5C233.651 645.792 233.094 645.938 232.469 645.938ZM245.766 636.797C246.474 636.797 246.974 636.688 247.266 636.469C247.557 636.25 247.703 636 247.703 635.719V635.062C247.703 634.312 247.427 633.693 246.875 633.203C246.323 632.714 245.719 632.469 245.062 632.469H244.656C243.708 632.469 242.88 632.87 242.172 633.672C241.464 634.464 241.109 635.333 241.109 636.281V636.547C241.109 636.911 241.443 637.094 242.109 637.094H242.469L242.562 637.078L243.734 637L244.516 636.938L245.047 636.875C245.141 636.865 245.266 636.849 245.422 636.828C245.589 636.807 245.703 636.797 245.766 636.797ZM245.125 646.203H244.438C242.354 646.203 240.682 645.5 239.422 644.094C238.859 643.469 238.422 642.677 238.109 641.719C237.797 640.75 237.641 639.792 237.641 638.844V638.141C237.641 637.193 237.839 636.198 238.234 635.156C238.995 633.125 240.286 631.745 242.109 631.016C243.047 630.63 244.042 630.438 245.094 630.438H245.438C246.896 630.438 248.099 630.88 249.047 631.766C249.589 632.276 249.995 632.891 250.266 633.609C250.547 634.318 250.688 634.958 250.688 635.531C250.688 636.792 250.292 637.615 249.5 638C248.958 638.26 247.719 638.505 245.781 638.734C243.854 638.964 242.797 639.104 242.609 639.156C241.703 639.385 241.25 639.792 241.25 640.375C241.25 641.385 241.714 642.229 242.641 642.906C243.318 643.406 244.286 643.656 245.547 643.656C246.026 643.656 246.802 643.505 247.875 643.203C248.948 642.901 249.536 642.75 249.641 642.75C250.182 642.75 250.453 642.995 250.453 643.484C250.453 644.099 249.87 644.708 248.703 645.312C247.547 645.906 246.354 646.203 245.125 646.203ZM255.562 637.5C254.667 636.708 254.219 635.688 254.219 634.438C254.219 633.177 254.755 632.151 255.828 631.359C256.901 630.557 258.266 630.156 259.922 630.156C261.578 630.156 262.786 630.359 263.547 630.766C264.307 631.161 264.688 631.682 264.688 632.328C264.688 633.214 264.401 633.656 263.828 633.656C263.63 633.656 263.104 633.443 262.25 633.016C261.396 632.589 260.568 632.375 259.766 632.375C258.964 632.375 258.359 632.557 257.953 632.922C257.557 633.286 257.359 633.755 257.359 634.328C257.359 634.901 257.745 635.411 258.516 635.859C258.776 636.016 259.62 636.38 261.047 636.953C262.484 637.516 263.495 638.052 264.078 638.562C264.984 639.365 265.438 640.406 265.438 641.688C265.438 642.969 264.901 644.047 263.828 644.922C262.766 645.786 261.391 646.219 259.703 646.219C256.839 646.219 255.062 645.661 254.375 644.547C254.156 644.193 254.047 643.88 254.047 643.609C254.047 642.703 254.328 642.25 254.891 642.25C255.057 642.25 255.667 642.531 256.719 643.094C257.781 643.646 258.724 643.922 259.547 643.922C260.38 643.922 261.036 643.745 261.516 643.391C261.995 643.036 262.234 642.557 262.234 641.953C262.234 641.339 261.854 640.776 261.094 640.266C260.781 640.057 259.922 639.672 258.516 639.109C257.109 638.536 256.125 638 255.562 637.5Z" fill="black"/>
<path d="M145.262 720.188C145.746 719.719 145.988 719.129 145.988 718.418C145.988 717.707 145.785 717.102 145.379 716.602C144.973 716.102 144.77 715.84 144.77 715.816C144.77 715.535 145.168 715.395 145.965 715.395C146.77 715.395 147.41 715.492 147.887 715.688C148.371 715.875 148.613 716.145 148.613 716.496V716.777C148.613 717.957 148.535 719.016 148.379 719.953C148.223 720.883 148.066 721.465 147.91 721.699C147.66 722.082 147.18 722.391 146.469 722.625C145.297 723.008 144.281 723.199 143.422 723.199H143.012C141.887 723.199 140.863 722.984 139.941 722.555C139.02 722.117 138.281 721.582 137.727 720.949C137.172 720.309 136.695 719.484 136.297 718.477C135.906 717.461 135.711 716.363 135.711 715.184V714.715C135.711 713.598 135.883 712.516 136.227 711.469C136.906 709.367 138.219 707.891 140.164 707.039C141.133 706.617 142.156 706.406 143.234 706.406H143.691C145.137 706.406 146.238 706.605 146.996 707.004C147.754 707.402 148.133 707.957 148.133 708.668C148.133 709.371 147.879 709.723 147.371 709.723L145.672 709.008C144.922 708.695 144.172 708.539 143.422 708.539C141.922 708.539 140.723 709.078 139.824 710.156C138.934 711.234 138.488 712.746 138.488 714.691C138.488 715.652 138.609 716.543 138.852 717.363C139.555 719.715 141.055 720.891 143.352 720.891C144.148 720.891 144.785 720.656 145.262 720.188ZM157.438 716.098C157.969 716.098 158.344 716.016 158.562 715.852C158.781 715.688 158.891 715.5 158.891 715.289V714.797C158.891 714.234 158.684 713.77 158.27 713.402C157.855 713.035 157.402 712.852 156.91 712.852H156.605C155.895 712.852 155.273 713.152 154.742 713.754C154.211 714.348 153.945 715 153.945 715.711V715.91C153.945 716.184 154.195 716.32 154.695 716.32H154.965L155.035 716.309L155.914 716.25L156.5 716.203L156.898 716.156C156.969 716.148 157.062 716.137 157.18 716.121C157.305 716.105 157.391 716.098 157.438 716.098ZM156.957 723.152H156.441C154.879 723.152 153.625 722.625 152.68 721.57C152.258 721.102 151.93 720.508 151.695 719.789C151.461 719.062 151.344 718.344 151.344 717.633V717.105C151.344 716.395 151.492 715.648 151.789 714.867C152.359 713.344 153.328 712.309 154.695 711.762C155.398 711.473 156.145 711.328 156.934 711.328H157.191C158.285 711.328 159.188 711.66 159.898 712.324C160.305 712.707 160.609 713.168 160.812 713.707C161.023 714.238 161.129 714.719 161.129 715.148C161.129 716.094 160.832 716.711 160.238 717C159.832 717.195 158.902 717.379 157.449 717.551C156.004 717.723 155.211 717.828 155.07 717.867C154.391 718.039 154.051 718.344 154.051 718.781C154.051 719.539 154.398 720.172 155.094 720.68C155.602 721.055 156.328 721.242 157.273 721.242C157.633 721.242 158.215 721.129 159.02 720.902C159.824 720.676 160.266 720.562 160.344 720.562C160.75 720.562 160.953 720.746 160.953 721.113C160.953 721.574 160.516 722.031 159.641 722.484C158.773 722.93 157.879 723.152 156.957 723.152ZM168.348 722.953H167.902C166.777 722.953 165.969 722.469 165.477 721.5C165.07 720.711 164.867 719.414 164.867 717.609C164.867 715.805 164.77 714.566 164.574 713.895C164.504 713.645 164.309 713.359 163.988 713.039C163.668 712.719 163.508 712.441 163.508 712.207V712.055C163.508 711.852 163.691 711.629 164.059 711.387C164.426 711.145 164.637 710.973 164.691 710.871C164.754 710.762 164.871 710.383 165.043 709.734C165.223 709.078 165.406 708.621 165.594 708.363C165.789 708.098 166.047 707.965 166.367 707.965C166.695 707.965 166.926 708.059 167.059 708.246C167.199 708.434 167.336 708.82 167.469 709.406C167.609 709.992 167.762 710.391 167.926 710.602C168.09 710.805 168.488 711.02 169.121 711.246C169.754 711.473 170.07 711.754 170.07 712.09C170.07 712.387 169.738 712.652 169.074 712.887C168.418 713.121 168.004 713.41 167.832 713.754C167.504 714.418 167.34 715.594 167.34 717.281C167.34 718.969 167.484 720.004 167.773 720.387C168.062 720.762 168.531 720.992 169.18 721.078C169.836 721.164 170.164 721.41 170.164 721.816C170.164 722.129 169.977 722.398 169.602 722.625C169.234 722.844 168.816 722.953 168.348 722.953ZM184.719 723.129C184 723.129 183.207 723.039 182.34 722.859C181.473 722.672 180.863 722.477 180.512 722.273C180.16 722.062 179.883 721.77 179.68 721.395C179.484 721.012 179.387 720.648 179.387 720.305C179.387 719.953 179.469 719.684 179.633 719.496C179.797 719.301 179.977 719.203 180.172 719.203C180.367 719.203 180.73 719.426 181.262 719.871C181.801 720.316 182.336 720.652 182.867 720.879C183.406 721.105 184.074 721.219 184.871 721.219C185.668 721.219 186.316 721.008 186.816 720.586C187.316 720.164 187.566 719.566 187.566 718.793C187.566 718.02 187.113 717.32 186.207 716.695C185.957 716.523 185.129 716.105 183.723 715.441C182.316 714.77 181.387 714.199 180.934 713.73C180.48 713.254 180.152 712.773 179.949 712.289C179.754 711.797 179.656 711.211 179.656 710.531C179.656 709.297 180.176 708.273 181.215 707.461C182.145 706.719 183.539 706.348 185.398 706.348C186.539 706.348 187.496 706.516 188.27 706.852C188.621 707.008 188.914 707.273 189.148 707.648C189.391 708.016 189.512 708.359 189.512 708.68C189.512 709.43 189.266 709.805 188.773 709.805C188.633 709.805 188.152 709.535 187.332 708.996C186.512 708.457 185.688 708.188 184.859 708.188C184.039 708.188 183.375 708.383 182.867 708.773C182.367 709.156 182.117 709.688 182.117 710.367C182.117 711.047 182.449 711.652 183.113 712.184C183.473 712.473 184.383 712.949 185.844 713.613C187.305 714.27 188.301 714.867 188.832 715.406C189.371 715.938 189.727 716.449 189.898 716.941C190.078 717.426 190.168 717.988 190.168 718.629C190.168 719.27 190.031 719.871 189.758 720.434C189.211 721.582 188.238 722.375 186.84 722.812C186.176 723.023 185.496 723.129 184.801 723.129C184.77 723.129 184.742 723.129 184.719 723.129ZM197.176 722.953H196.73C195.605 722.953 194.797 722.469 194.305 721.5C193.898 720.711 193.695 719.414 193.695 717.609C193.695 715.805 193.598 714.566 193.402 713.895C193.332 713.645 193.137 713.359 192.816 713.039C192.496 712.719 192.336 712.441 192.336 712.207V712.055C192.336 711.852 192.52 711.629 192.887 711.387C193.254 711.145 193.465 710.973 193.52 710.871C193.582 710.762 193.699 710.383 193.871 709.734C194.051 709.078 194.234 708.621 194.422 708.363C194.617 708.098 194.875 707.965 195.195 707.965C195.523 707.965 195.754 708.059 195.887 708.246C196.027 708.434 196.164 708.82 196.297 709.406C196.438 709.992 196.59 710.391 196.754 710.602C196.918 710.805 197.316 711.02 197.949 711.246C198.582 711.473 198.898 711.754 198.898 712.09C198.898 712.387 198.566 712.652 197.902 712.887C197.246 713.121 196.832 713.41 196.66 713.754C196.332 714.418 196.168 715.594 196.168 717.281C196.168 718.969 196.312 720.004 196.602 720.387C196.891 720.762 197.359 720.992 198.008 721.078C198.664 721.164 198.992 721.41 198.992 721.816C198.992 722.129 198.805 722.398 198.43 722.625C198.062 722.844 197.645 722.953 197.176 722.953ZM205.285 721.523H205.648C206.375 721.523 207.016 721.211 207.57 720.586C207.875 720.242 208.027 719.602 208.027 718.664L208.039 718.512V718.219C208.039 717.633 207.797 717.34 207.312 717.34H206.938L206.328 717.387L206.012 717.422C205.293 717.422 204.703 717.625 204.242 718.031C203.781 718.43 203.551 718.906 203.551 719.461V719.871C203.551 720.293 203.699 720.676 203.996 721.02C204.301 721.355 204.73 721.523 205.285 721.523ZM211.215 722.086C211.215 722.609 210.688 722.871 209.633 722.871C209.445 722.871 209.102 722.777 208.602 722.59C208.109 722.395 207.797 722.297 207.664 722.297C207.539 722.297 207.117 722.434 206.398 722.707C205.68 722.973 205.047 723.105 204.5 723.105H204.23C203.379 723.105 202.645 722.828 202.027 722.273C201.41 721.711 201.102 720.945 201.102 719.977C201.102 718.008 202.348 716.781 204.84 716.297C206.457 715.977 207.293 715.805 207.348 715.781C207.73 715.586 207.922 715.234 207.922 714.727C207.922 714.211 207.758 713.781 207.43 713.438C207.109 713.086 206.668 712.91 206.105 712.91C205.551 712.91 204.895 713.102 204.137 713.484C203.379 713.859 202.859 714.047 202.578 714.047C202.07 714.047 201.816 713.699 201.816 713.004C201.816 712.566 202.215 712.152 203.012 711.762C203.816 711.371 204.73 711.176 205.754 711.176H206.34C207.105 711.176 207.785 711.32 208.379 711.609C208.973 711.898 209.426 712.289 209.738 712.781C210.184 713.477 210.406 715.066 210.406 717.551C210.406 718.957 210.434 719.832 210.488 720.176C210.551 720.52 210.688 720.867 210.898 721.219C211.109 721.562 211.215 721.852 211.215 722.086ZM219.5 713.742C218.766 713.742 218.195 714.109 217.789 714.844C217.383 715.57 217.18 716.684 217.18 718.184C217.18 718.848 217.207 719.32 217.262 719.602C217.316 719.875 217.398 720.219 217.508 720.633C217.625 721.039 217.684 721.395 217.684 721.699C217.684 721.996 217.504 722.27 217.145 722.52C216.785 722.77 216.316 722.895 215.738 722.895L215.539 722.883H215.328C214.953 722.883 214.641 722.777 214.391 722.566C214.148 722.355 214.027 722.117 214.027 721.852V721.664C214.027 721.609 214.102 721.352 214.25 720.891C214.398 720.43 214.484 719.984 214.508 719.555C214.531 719.125 214.543 718.547 214.543 717.82V716.52L214.531 716.309C214.531 716.168 214.531 716.027 214.531 715.887L214.508 715.254C214.5 715.113 214.496 714.84 214.496 714.434C214.496 714.02 214.422 713.629 214.273 713.262C214.133 712.887 214.062 712.645 214.062 712.535C214.062 712.066 214.473 711.832 215.293 711.832C216.113 711.832 216.707 712.055 217.074 712.5C217.184 712.633 217.297 712.699 217.414 712.699C217.539 712.699 217.742 712.602 218.023 712.406C218.805 711.875 219.461 711.609 219.992 711.609H220.18C220.648 711.609 221.004 711.715 221.246 711.926C221.496 712.137 221.621 712.418 221.621 712.77C221.621 713.465 221.234 713.812 220.461 713.812C220.156 713.766 219.836 713.742 219.5 713.742ZM228.23 722.953H227.785C226.66 722.953 225.852 722.469 225.359 721.5C224.953 720.711 224.75 719.414 224.75 717.609C224.75 715.805 224.652 714.566 224.457 713.895C224.387 713.645 224.191 713.359 223.871 713.039C223.551 712.719 223.391 712.441 223.391 712.207V712.055C223.391 711.852 223.574 711.629 223.941 711.387C224.309 711.145 224.52 710.973 224.574 710.871C224.637 710.762 224.754 710.383 224.926 709.734C225.105 709.078 225.289 708.621 225.477 708.363C225.672 708.098 225.93 707.965 226.25 707.965C226.578 707.965 226.809 708.059 226.941 708.246C227.082 708.434 227.219 708.82 227.352 709.406C227.492 709.992 227.645 710.391 227.809 710.602C227.973 710.805 228.371 711.02 229.004 711.246C229.637 711.473 229.953 711.754 229.953 712.09C229.953 712.387 229.621 712.652 228.957 712.887C228.301 713.121 227.887 713.41 227.715 713.754C227.387 714.418 227.223 715.594 227.223 717.281C227.223 718.969 227.367 720.004 227.656 720.387C227.945 720.762 228.414 720.992 229.062 721.078C229.719 721.164 230.047 721.41 230.047 721.816C230.047 722.129 229.859 722.398 229.484 722.625C229.117 722.844 228.699 722.953 228.23 722.953ZM238.203 716.098C238.734 716.098 239.109 716.016 239.328 715.852C239.547 715.688 239.656 715.5 239.656 715.289V714.797C239.656 714.234 239.449 713.77 239.035 713.402C238.621 713.035 238.168 712.852 237.676 712.852H237.371C236.66 712.852 236.039 713.152 235.508 713.754C234.977 714.348 234.711 715 234.711 715.711V715.91C234.711 716.184 234.961 716.32 235.461 716.32H235.73L235.801 716.309L236.68 716.25L237.266 716.203L237.664 716.156C237.734 716.148 237.828 716.137 237.945 716.121C238.07 716.105 238.156 716.098 238.203 716.098ZM237.723 723.152H237.207C235.645 723.152 234.391 722.625 233.445 721.57C233.023 721.102 232.695 720.508 232.461 719.789C232.227 719.062 232.109 718.344 232.109 717.633V717.105C232.109 716.395 232.258 715.648 232.555 714.867C233.125 713.344 234.094 712.309 235.461 711.762C236.164 711.473 236.91 711.328 237.699 711.328H237.957C239.051 711.328 239.953 711.66 240.664 712.324C241.07 712.707 241.375 713.168 241.578 713.707C241.789 714.238 241.895 714.719 241.895 715.148C241.895 716.094 241.598 716.711 241.004 717C240.598 717.195 239.668 717.379 238.215 717.551C236.77 717.723 235.977 717.828 235.836 717.867C235.156 718.039 234.816 718.344 234.816 718.781C234.816 719.539 235.164 720.172 235.859 720.68C236.367 721.055 237.094 721.242 238.039 721.242C238.398 721.242 238.98 721.129 239.785 720.902C240.59 720.676 241.031 720.562 241.109 720.562C241.516 720.562 241.719 720.746 241.719 721.113C241.719 721.574 241.281 722.031 240.406 722.484C239.539 722.93 238.645 723.152 237.723 723.152ZM251.902 715.137C251.902 714.449 251.73 713.891 251.387 713.461C251.051 713.031 250.492 712.816 249.711 712.816H249.605L249.488 712.828C248.676 712.828 248.004 713.215 247.473 713.988C246.949 714.754 246.688 715.812 246.688 717.164V717.703C246.688 718.914 246.926 719.848 247.402 720.504C247.887 721.16 248.48 721.488 249.184 721.488H249.289C250.109 721.488 250.746 721.203 251.199 720.633C251.652 720.062 251.879 719.246 251.879 718.184C251.895 718.012 251.902 717.887 251.902 717.809L251.938 717.07V715.734L251.914 715.371C251.906 715.293 251.902 715.215 251.902 715.137ZM249.875 711.398C250.734 711.398 251.25 711.293 251.422 711.082C251.688 710.754 251.82 710.055 251.82 708.984C251.82 708.664 251.785 708.336 251.715 708C251.645 707.656 251.609 707.43 251.609 707.32C251.609 706.969 251.742 706.672 252.008 706.43C252.273 706.188 252.66 706.066 253.168 706.066H253.391C254.008 706.066 254.363 706.344 254.457 706.898C254.527 707.297 254.562 709.488 254.562 713.473L254.539 714.879V716.836L254.562 717.914C254.562 718.094 254.562 718.273 254.562 718.453L254.574 718.711C254.582 718.883 254.586 719.195 254.586 719.648C254.586 720.094 254.648 720.531 254.773 720.961C254.906 721.383 254.973 721.68 254.973 721.852C254.973 722.023 254.875 722.191 254.68 722.355C254.484 722.52 254.195 722.602 253.812 722.602C253.438 722.602 253.051 722.551 252.652 722.449C252.262 722.34 251.992 722.285 251.844 722.285C251.695 722.285 251.289 722.398 250.625 722.625C249.969 722.852 249.395 722.965 248.902 722.965H248.645C247.316 722.965 246.281 722.516 245.539 721.617C244.805 720.711 244.438 719.527 244.438 718.066V717.469C244.438 716.703 244.559 715.938 244.801 715.172C245.051 714.398 245.41 713.727 245.879 713.156C246.855 711.984 248.188 711.398 249.875 711.398Z" fill="black"/>
</g>
<defs>
<filter id="filter0_fn_7_76" x="-233" y="-157" width="691" height="691" filterUnits="userSpaceOnUse" color-interpolation-filters="sRGB">
<feFlood flood-opacity="0" result="BackgroundImageFix"/>
<feBlend mode="normal" in="SourceGraphic" in2="BackgroundImageFix" result="shape"/>
<feGaussianBlur stdDeviation="75" result="effect1_foregroundBlur_7_76"/>
<feTurbulence type="fractalNoise" baseFrequency="2 2" stitchTiles="stitch" numOctaves="3" result="noise" seed="4299" />
<feColorMatrix in="noise" type="luminanceToAlpha" result="alphaNoise" />
<feComponentTransfer in="alphaNoise" result="coloredNoise1">
<feFuncA type="discrete" tableValues="0 0 0 0 0 0 0 0 0 0 0 0 0 0 0 0 1 1 1 1 1 1 1 1 1 1 1 1 1 1 1 1 1 1 0 0 0 0 0 0 0 0 0 0 0 0 0 0 0 0 0 0 0 0 0 0 0 0 0 0 0 0 0 0 0 0 0 0 0 0 0 0 0 0 0 0 0 0 0 0 0 0 0 0 0 0 0 0 0 0 0 0 0 0 0 0 0 0 0 0 "/>
</feComponentTransfer>
<feComposite operator="in" in2="effect1_foregroundBlur_7_76" in="coloredNoise1" result="noise1Clipped" />
<feFlood flood-color="rgba(0, 0, 0, 0.25)" result="color1Flood" />
<feComposite operator="in" in2="noise1Clipped" in="color1Flood" result="color1" />
<feMerge result="effect2_noise_7_76">
<feMergeNode in="effect1_foregroundBlur_7_76" />
<feMergeNode in="color1" />
</feMerge>
</filter>
<filter id="filter1_fn_7_76" x="-208" y="305" width="763" height="763" filterUnits="userSpaceOnUse" color-interpolation-filters="sRGB">
<feFlood flood-opacity="0" result="BackgroundImageFix"/>
<feBlend mode="normal" in="SourceGraphic" in2="BackgroundImageFix" result="shape"/>
<feGaussianBlur stdDeviation="75" result="effect1_foregroundBlur_7_76"/>
<feTurbulence type="fractalNoise" baseFrequency="2 2" stitchTiles="stitch" numOctaves="3" result="noise" seed="4299" />
<feColorMatrix in="noise" type="luminanceToAlpha" result="alphaNoise" />
<feComponentTransfer in="alphaNoise" result="coloredNoise1">
<feFuncA type="discrete" tableValues="0 0 0 0 0 0 0 0 0 0 0 0 0 0 0 0 1 1 1 1 1 1 1 1 1 1 1 1 1 1 1 1 1 1 0 0 0 0 0 0 0 0 0 0 0 0 0 0 0 0 0 0 0 0 0 0 0 0 0 0 0 0 0 0 0 0 0 0 0 0 0 0 0 0 0 0 0 0 0 0 0 0 0 0 0 0 0 0 0 0 0 0 0 0 0 0 0 0 0 0 "/>
</feComponentTransfer>
<feComposite operator="in" in2="effect1_foregroundBlur_7_76" in="coloredNoise1" result="noise1Clipped" />
<feFlood flood-color="rgba(0, 0, 0, 0.25)" result="color1Flood" />
<feComposite operator="in" in2="noise1Clipped" in="color1Flood" result="color1" />
<feMerge result="effect2_noise_7_76">
<feMergeNode in="effect1_foregroundBlur_7_76" />
<feMergeNode in="color1" />
</feMerge>
</filter>
<filter id="filter2_fn_7_76" x="-5" y="38" width="733" height="733" filterUnits="userSpaceOnUse" color-interpolation-filters="sRGB">
<feFlood flood-opacity="0" result="BackgroundImageFix"/>
<feBlend mode="normal" in="SourceGraphic" in2="BackgroundImageFix" result="shape"/>
<feGaussianBlur stdDeviation="75" result="effect1_foregroundBlur_7_76"/>
<feTurbulence type="fractalNoise" baseFrequency="2 2" stitchTiles="stitch" numOctaves="3" result="noise" seed="4299" />
<feColorMatrix in="noise" type="luminanceToAlpha" result="alphaNoise" />
<feComponentTransfer in="alphaNoise" result="coloredNoise1">
<feFuncA type="discrete" tableValues="0 0 0 0 0 0 0 0 0 0 0 0 0 0 0 0 1 1 1 1 1 1 1 1 1 1 1 1 1 1 1 1 1 1 0 0 0 0 0 0 0 0 0 0 0 0 0 0 0 0 0 0 0 0 0 0 0 0 0 0 0 0 0 0 0 0 0 0 0 0 0 0 0 0 0 0 0 0 0 0 0 0 0 0 0 0 0 0 0 0 0 0 0 0 0 0 0 0 0 0 "/>
</feComponentTransfer>
<feComposite operator="in" in2="effect1_foregroundBlur_7_76" in="coloredNoise1" result="noise1Clipped" />
<feFlood flood-color="rgba(0, 0, 0, 0.25)" result="color1Flood" />
<feComposite operator="in" in2="noise1Clipped" in="color1Flood" result="color1" />
<feMerge result="effect2_noise_7_76">
<feMergeNode in="effect1_foregroundBlur_7_76" />
<feMergeNode in="color1" />
</feMerge>
</filter>
<clipPath id="clip0_7_76">
<rect width="390" height="844" fill="white"/>
</clipPath>
</defs>
</svg>
